<svg xmlns="http://www.w3.org/2000/svg" id="svg-3800" width="125" height="47" viewBox="0 0 125 47" fill="none"><path d="M117.259 46.7C117.039 46.7 116.819 46.63 116.639 46.48L108.669 40.1L100.699 46.48C100.399 46.72 99.9893 46.77 99.6393 46.6C99.2893 46.43 99.0693 46.08 99.0693 45.7V29.25C99.0693 28.9 99.2493 28.58 99.5493 28.4C99.8493 28.22 100.219 28.2 100.529 28.36C101.429 28.82 102.669 28.86 104.209 28.49C104.579 28.4 104.959 28.53 105.209 28.81C107.609 31.63 109.729 31.63 112.129 28.81C112.369 28.52 112.759 28.39 113.129 28.49C114.679 28.87 115.909 28.82 116.809 28.36C117.119 28.2 117.489 28.21 117.789 28.4C118.089 28.58 118.269 28.9 118.269 29.25V45.7C118.269 46.08 118.049 46.43 117.699 46.6C117.549 46.67 117.409 46.7 117.259 46.7ZM108.659 37.82C108.879 37.82 109.099 37.89 109.279 38.04L116.249 43.62V30.63C115.359 30.8 114.349 30.78 113.229 30.56C111.749 32.14 110.209 32.94 108.649 32.94C107.089 32.94 105.549 32.14 104.069 30.56C102.959 30.77 101.949 30.79 101.049 30.63V43.62L108.019 38.04C108.219 37.9 108.439 37.82 108.659 37.82Z" fill="#575756"></path><path d="M108.66 32.95C107.1 32.95 105.56 32.15 104.08 30.57C101.96 30.98 100.24 30.72 98.9797 29.8C97.7097 28.88 96.9398 27.33 96.6698 25.18C94.7098 24.26 93.4698 23.05 92.9898 21.56C92.5098 20.07 92.7897 18.36 93.8397 16.47C92.7897 14.58 92.5098 12.87 92.9898 11.38C93.4698 9.89 94.7098 8.68 96.6698 7.76C96.9398 5.61 97.7097 4.06 98.9797 3.14C100.25 2.22 101.96 1.96 104.08 2.37C107.03 -0.79 110.28 -0.79 113.24 2.37C115.36 1.96 117.08 2.22 118.34 3.14C119.61 4.06 120.38 5.61 120.65 7.76C122.61 8.68 123.85 9.89 124.33 11.38C124.81 12.87 124.53 14.58 123.48 16.47C124.53 18.36 124.81 20.07 124.33 21.56C123.85 23.05 122.61 24.26 120.65 25.18C120.38 27.33 119.61 28.88 118.34 29.8C117.07 30.72 115.36 30.97 113.24 30.57C111.77 32.15 110.23 32.95 108.66 32.95ZM104.44 28.46C104.73 28.46 105.01 28.59 105.2 28.81C107.6 31.63 109.72 31.63 112.12 28.81C112.36 28.52 112.75 28.39 113.12 28.49C114.92 28.93 116.29 28.82 117.17 28.18C118.05 27.54 118.58 26.27 118.72 24.43C118.75 24.05 118.99 23.72 119.34 23.58C121.05 22.87 122.1 21.99 122.43 20.95C122.77 19.91 122.45 18.58 121.47 17C121.27 16.68 121.27 16.27 121.47 15.95C122.44 14.37 122.76 13.04 122.43 12C122.09 10.96 121.05 10.07 119.34 9.37C118.99 9.23 118.75 8.9 118.72 8.52C118.58 6.67 118.06 5.41 117.17 4.77C116.29 4.13 114.92 4.02 113.12 4.46C112.75 4.55 112.37 4.42 112.12 4.14C109.72 1.32 107.6 1.32 105.2 4.14C104.96 4.43 104.57 4.56 104.2 4.46C102.4 4.02 101.03 4.13 100.15 4.77C99.2697 5.41 98.7398 6.68 98.5998 8.52C98.5698 8.9 98.3297 9.23 97.9797 9.37C96.2597 10.08 95.2198 10.96 94.8898 12C94.5498 13.04 94.8698 14.37 95.8498 15.95C96.0498 16.27 96.0498 16.68 95.8498 17C94.8798 18.58 94.5598 19.91 94.8898 20.95C95.2298 21.99 96.2697 22.88 97.9797 23.58C98.3297 23.72 98.5698 24.05 98.5998 24.43C98.7398 26.28 99.2597 27.54 100.15 28.18C101.04 28.82 102.4 28.93 104.2 28.49C104.28 28.47 104.36 28.46 104.44 28.46Z" fill="#575756"></path><path d="M107.02 22.83C106.76 22.83 106.52 22.73 106.33 22.55L101.67 18.1C101.27 17.72 101.26 17.09 101.64 16.69C102.02 16.29 102.66 16.28 103.05 16.66L106.87 20.31L114.26 9.81001C114.58 9.36001 115.2 9.25001 115.65 9.57001C116.1 9.89001 116.21 10.51 115.89 10.96L107.83 22.41C107.66 22.65 107.4 22.8 107.11 22.83C107.08 22.83 107.05 22.83 107.02 22.83Z" fill="#575756"></path><path d="M0.0100002 28.3299H2.95C3.28 28.3299 3.55 28.3099 3.73 28.2599C3.92 28.2099 4.06 28.1299 4.16 28.0299C4.23 27.9599 4.29 27.8599 4.32 27.7399C4.35 27.6099 4.37 27.4499 4.37 27.2399V21.5699H5.4V27.2399C5.4 27.9599 5.19 28.4999 4.78 28.8399C4.37 29.1899 3.76 29.3599 2.94 29.3599H0V28.3299H0.0100002ZM0.690001 27.3699L0.360001 21.7999L1.38 21.6899L1.71 27.3699H0.690001Z" fill="#4286F3"></path><path d="M9.79969 29.36C9.41969 29.36 9.09969 29.33 8.84969 29.28C8.59969 29.23 8.38969 29.16 8.21969 29.07C8.04969 28.98 7.90969 28.86 7.80969 28.72C7.70969 28.58 7.62969 28.42 7.56969 28.23C7.50969 28.04 7.46969 27.83 7.45969 27.6C7.44969 27.37 7.42969 27.11 7.42969 26.83V21.58H8.45969V26.83C8.45969 27.15 8.46969 27.4 8.48969 27.6C8.50969 27.8 8.55969 27.95 8.64969 28.06C8.73969 28.17 8.85969 28.24 9.03969 28.28C9.21969 28.32 9.46969 28.34 9.80969 28.34V29.36H9.79969Z" fill="#4286F3"></path><path d="M9.55957 29.36V28.33H12.7596C13.0196 28.33 13.2396 28.3 13.4096 28.24C13.5796 28.18 13.6896 28.1 13.7496 27.99C13.7796 27.94 13.7896 27.87 13.7896 27.8C13.7896 27.74 13.7696 27.65 13.7396 27.54C13.7096 27.43 13.6296 27.27 13.5196 27.09C13.4096 26.9 13.2696 26.71 13.1096 26.5C12.9496 26.29 12.7696 26.08 12.5796 25.88C12.3896 25.68 12.1996 25.47 11.9996 25.27C11.7996 25.07 11.6096 24.89 11.4196 24.72C11.2296 24.55 11.0696 24.4 10.9096 24.27C10.7496 24.14 10.6296 24.04 10.5296 23.97L10.6296 22.81L15.6196 20.62L16.0296 21.56L11.6596 23.47C11.7696 23.58 11.9096 23.72 12.0796 23.88C12.2496 24.05 12.4396 24.23 12.6396 24.43C12.8396 24.63 13.0396 24.85 13.2496 25.07C13.4596 25.3 13.6496 25.53 13.8396 25.75C14.0296 25.97 14.1896 26.2 14.3296 26.42C14.4696 26.64 14.5796 26.84 14.6496 27.03C14.7096 27.19 14.7496 27.34 14.7796 27.48C14.7996 27.6 14.8096 27.71 14.8096 27.81C14.8096 27.83 14.8096 27.87 14.8096 27.94C14.8096 28.01 14.7996 28.08 14.7696 28.17C14.7496 28.26 14.7196 28.34 14.6896 28.41C14.6496 28.5 14.5896 28.6 14.4996 28.71C14.4196 28.82 14.2996 28.92 14.1496 29.02C13.9996 29.12 13.8096 29.2 13.5896 29.26C13.3696 29.32 13.0896 29.36 12.7596 29.36H9.55957V29.36Z" fill="#4286F3"></path><path d="M32.0996 28.33V29.36H31.9396C31.6696 29.36 31.4196 29.32 31.1896 29.24C30.9496 29.16 30.7396 29.05 30.5596 28.9C30.5396 28.88 30.5196 28.86 30.4896 28.84C30.4696 28.82 30.4496 28.8 30.4196 28.78C30.0296 29.16 29.4796 29.36 28.7496 29.36H22.5596C22.2996 29.36 22.0596 29.32 21.8296 29.23C21.5996 29.14 21.3996 29.02 21.2296 28.85C21.1596 28.78 21.0796 28.7 21.0096 28.61C20.9396 28.52 20.8696 28.4 20.8096 28.28C20.7496 28.15 20.6996 28.01 20.6596 27.85C20.6196 27.69 20.5996 27.51 20.5996 27.3C20.5996 27.12 20.6196 26.92 20.6596 26.7C20.6996 26.48 20.7396 26.27 20.7896 26.08C20.8396 25.89 20.8796 25.71 20.9196 25.57C20.9596 25.43 20.9896 25.34 20.9996 25.31L21.9796 25.62C21.9496 25.7 21.9196 25.8 21.8796 25.94C21.8396 26.08 21.7996 26.23 21.7696 26.39C21.7396 26.55 21.6996 26.71 21.6696 26.87C21.6396 27.03 21.6296 27.17 21.6296 27.29C21.6296 27.53 21.6696 27.72 21.7396 27.86C21.8196 28 21.9096 28.1 22.0096 28.17C22.1096 28.24 22.2196 28.28 22.3196 28.3C22.4296 28.32 22.5096 28.33 22.5596 28.33H28.6996C28.9696 28.33 29.1796 28.3 29.3396 28.25C29.4996 28.2 29.6196 28.13 29.6996 28.04C29.7796 27.96 29.8296 27.87 29.8596 27.76C29.8796 27.66 29.8996 27.56 29.8996 27.47V25.58H30.9296V27.45C30.9296 27.66 30.9696 27.82 31.0596 27.94C31.1496 28.06 31.2496 28.15 31.3696 28.2C31.4896 28.26 31.5996 28.29 31.7096 28.31C31.8196 28.33 31.8996 28.33 31.9396 28.33H32.0996ZM24.6496 25.17L23.7896 24.3L24.6396 23.42L25.5196 24.3L24.6496 25.17ZM26.7396 25.18L25.8796 24.31L26.7296 23.43L27.6096 24.31L26.7396 25.18Z" fill="#4286F3"></path><path d="M31.8303 28.3299H32.0203C32.3503 28.3299 32.6203 28.3099 32.8003 28.2599C32.9903 28.2099 33.1303 28.1299 33.2303 28.0299C33.3003 27.9599 33.3603 27.8599 33.3903 27.7399C33.4203 27.6099 33.4403 27.4499 33.4403 27.2399V21.5699H34.4703V27.2399C34.4703 27.3599 34.4603 27.4899 34.4503 27.6199C34.4403 27.7499 34.4203 27.8899 34.3803 28.0199C34.3403 28.1499 34.2903 28.2899 34.2203 28.4199C34.1503 28.5499 34.0603 28.6699 33.9403 28.7799C33.8303 28.8799 33.7203 28.9599 33.6003 29.0299C33.4803 29.0999 33.3403 29.1599 33.1803 29.2099C33.0203 29.2599 32.8503 29.2999 32.6603 29.3199C32.4703 29.3399 32.2503 29.3599 32.0103 29.3599H31.8203V28.3299H31.8303Z" fill="#4286F3"></path><path d="M38.5399 29.36C38.1599 29.36 37.8399 29.33 37.5899 29.28C37.3399 29.23 37.1299 29.16 36.9599 29.07C36.7899 28.98 36.6499 28.86 36.5499 28.72C36.4499 28.58 36.3699 28.42 36.3099 28.23C36.2499 28.04 36.2099 27.83 36.1999 27.6C36.1899 27.37 36.1699 27.11 36.1699 26.83V21.58H37.1999V26.83C37.1999 27.15 37.2099 27.4 37.2299 27.6C37.2499 27.8 37.2999 27.95 37.3899 28.06C37.4799 28.17 37.5999 28.24 37.7799 28.28C37.9599 28.32 38.2099 28.34 38.5499 28.34V29.36H38.5399Z" fill="#4286F3"></path><path d="M38.3203 29.3601V28.3301H39.2603C39.5103 28.3301 39.7203 28.3001 39.8703 28.2501C40.0203 28.2001 40.1403 28.1301 40.2203 28.0601C40.3003 27.9901 40.3503 27.8901 40.3803 27.8001C40.4103 27.7101 40.4203 27.6101 40.4203 27.5201V25.6801H41.4503V27.4801C41.4503 27.6801 41.4903 27.8401 41.5803 27.9501C41.6703 28.0601 41.7603 28.1501 41.8703 28.2001C41.9103 28.1301 41.9603 28.0601 42.0003 27.9901C42.0403 27.9201 42.0803 27.8501 42.1303 27.7701C42.2703 27.5401 42.4203 27.3001 42.5703 27.0601C42.7203 26.8201 42.8903 26.5801 43.0603 26.3501C43.2303 26.1201 43.4103 25.9001 43.6003 25.7001C43.7903 25.5001 43.9903 25.3201 44.2003 25.1701C44.4103 25.0201 44.6403 24.9001 44.8703 24.8101C45.1103 24.7201 45.3603 24.6801 45.6203 24.6801C45.8803 24.6801 46.1503 24.7301 46.4003 24.8201C46.6603 24.9201 46.8803 25.0701 47.0903 25.2701C47.2903 25.4701 47.4503 25.7301 47.5703 26.0401C47.6903 26.3501 47.7503 26.7301 47.7503 27.1601C47.7503 27.5601 47.6803 27.9101 47.5503 28.1901C47.4203 28.4701 47.2503 28.7001 47.0303 28.8701C46.8203 29.0401 46.5803 29.1701 46.3203 29.2501C46.0603 29.3301 45.8003 29.3601 45.5503 29.3601H42.4303C42.1703 29.3601 41.9203 29.3201 41.6903 29.2401C41.4603 29.1601 41.2503 29.0501 41.0703 28.9001C41.0303 28.8701 40.9803 28.8301 40.9403 28.7901C40.7503 28.9801 40.5203 29.1101 40.2503 29.2001C39.9803 29.2901 39.6603 29.3401 39.3003 29.3501H38.3203V29.3601ZM45.5503 28.3301C45.7303 28.3301 45.8903 28.3101 46.0303 28.2601C46.1803 28.2101 46.3003 28.1401 46.4103 28.0401C46.5103 27.9401 46.5903 27.8201 46.6503 27.6701C46.7103 27.5201 46.7403 27.3501 46.7403 27.1601C46.7403 26.6901 46.6403 26.3401 46.4403 26.0801C46.2403 25.8301 45.9703 25.7001 45.6203 25.7001C45.3703 25.7001 45.1203 25.7801 44.8803 25.9501C44.6403 26.1101 44.4103 26.3201 44.1903 26.5801C43.9703 26.8301 43.7603 27.1201 43.5603 27.4301C43.3603 27.7401 43.1703 28.0401 42.9903 28.3401H45.5503V28.3301Z" fill="#4286F3"></path><path d="M50.2497 29.36H49.2197V21.58H50.2497V29.36Z" fill="#4286F3"></path><path d="M67.4102 28.33V29.36H67.2502C66.9802 29.36 66.7302 29.32 66.5002 29.24C66.2702 29.16 66.0502 29.05 65.8702 28.9C65.8502 28.88 65.8302 28.86 65.8002 28.84C65.7802 28.82 65.7602 28.8 65.7302 28.78C65.3502 29.16 64.7902 29.36 64.0602 29.36H57.8702C57.6102 29.36 57.3702 29.32 57.1402 29.23C56.9102 29.14 56.7102 29.02 56.5402 28.85C56.4702 28.78 56.3902 28.7 56.3202 28.61C56.2502 28.52 56.1802 28.4 56.1202 28.28C56.0602 28.15 56.0102 28.01 55.9702 27.85C55.9302 27.69 55.9102 27.51 55.9102 27.3C55.9102 27.12 55.9302 26.92 55.9702 26.7C56.0102 26.48 56.0502 26.27 56.1002 26.08C56.1402 25.88 56.1902 25.71 56.2302 25.57C56.2702 25.43 56.3002 25.34 56.3102 25.31L57.2902 25.62C57.2602 25.7 57.2302 25.8 57.1902 25.94C57.1502 26.08 57.1102 26.23 57.0802 26.39C57.0502 26.55 57.0102 26.71 56.9802 26.87C56.9502 27.03 56.9402 27.17 56.9402 27.29C56.9402 27.53 56.9802 27.72 57.0502 27.86C57.1302 28 57.2202 28.1 57.3202 28.17C57.4202 28.24 57.5302 28.28 57.6302 28.3C57.7402 28.32 57.8102 28.33 57.8702 28.33H64.0102C64.2702 28.33 64.4902 28.3 64.6402 28.25C64.8002 28.2 64.9202 28.13 65.0002 28.04C65.0802 27.96 65.1302 27.87 65.1602 27.76C65.1802 27.66 65.2002 27.56 65.2002 27.47V25.58H66.2302V27.45C66.2302 27.66 66.2702 27.82 66.3602 27.94C66.4502 28.06 66.5502 28.15 66.6702 28.2C66.7902 28.26 66.9002 28.29 67.0102 28.31C67.1202 28.32 67.1902 28.33 67.2402 28.33H67.4102ZM59.9602 25.17L59.1002 24.3L59.9502 23.42L60.8302 24.3L59.9602 25.17ZM62.0502 25.18L61.1902 24.31L62.0402 23.43L62.9202 24.31L62.0502 25.18Z" fill="#4286F3"></path><path d="M70.0696 24.92C70.0796 24.94 70.0896 25 70.1096 25.09C70.1296 25.18 70.1596 25.3 70.1796 25.44C70.2096 25.58 70.2396 25.73 70.2696 25.9C70.2996 26.07 70.3296 26.24 70.3596 26.41C70.3896 26.58 70.4096 26.75 70.4296 26.91C70.4496 27.07 70.4596 27.21 70.4596 27.33C70.4596 27.68 70.3996 27.98 70.2896 28.23C70.1796 28.48 70.0296 28.69 69.8396 28.86C69.6596 29.03 69.4496 29.15 69.2196 29.23C68.9896 29.31 68.7596 29.35 68.5296 29.35H67.1396V28.32H68.5296C68.5796 28.32 68.6596 28.31 68.7596 28.3C68.8596 28.29 68.9596 28.24 69.0596 28.18C69.1596 28.11 69.2496 28.02 69.3196 27.89C69.3996 27.76 69.4296 27.58 69.4296 27.34C69.4296 27.26 69.4196 27.16 69.4096 27.04C69.3996 26.92 69.3796 26.79 69.3596 26.65C69.3396 26.51 69.3196 26.37 69.2896 26.22C69.2596 26.07 69.2396 25.93 69.2096 25.8C69.1796 25.67 69.1596 25.55 69.1396 25.45C69.1196 25.35 69.0996 25.27 69.0896 25.22L70.0696 24.92ZM68.2696 22.67L69.1996 21.73L70.1496 22.68L69.2096 23.62L68.2696 22.67Z" fill="#4286F3"></path><path d="M74.3505 29.36C73.9705 29.36 73.6505 29.33 73.4005 29.28C73.1505 29.23 72.9405 29.16 72.7705 29.07C72.6005 28.98 72.4605 28.86 72.3605 28.72C72.2605 28.58 72.1805 28.42 72.1205 28.23C72.0605 28.04 72.0205 27.83 72.0105 27.6C72.0005 27.37 71.9805 27.11 71.9805 26.83V21.58H73.0105V26.83C73.0105 27.15 73.0205 27.4 73.0405 27.6C73.0605 27.8 73.1105 27.95 73.2005 28.06C73.2905 28.17 73.4105 28.24 73.5905 28.28C73.7705 28.32 74.0205 28.34 74.3605 28.34V29.36H74.3505Z" fill="#4286F3"></path><path d="M80.5396 29.3599C80.2796 29.3599 80.0296 29.3199 79.7996 29.2499C79.5696 29.1699 79.3596 29.0599 79.1796 28.9199C79.0796 29.0699 78.9696 29.1999 78.8596 29.2899C78.7496 29.3799 78.6196 29.4499 78.5096 29.4999C78.3896 29.5499 78.2796 29.5799 78.1696 29.5999C78.0596 29.6199 77.9696 29.6199 77.8896 29.6199C77.7096 29.6199 77.5396 29.5999 77.3796 29.5699C77.2196 29.5299 77.0496 29.4799 76.8796 29.4099C76.7096 29.3399 76.5296 29.2599 76.3396 29.1599C76.1496 29.0599 75.9496 28.9499 75.7196 28.8299C75.4196 29.1799 75.0396 29.3599 74.5696 29.3599H74.1396V28.3299H74.5696C74.7096 28.3299 74.8196 28.2799 74.9096 28.1799C74.9996 28.0799 75.0796 27.9499 75.1396 27.7799C75.2096 27.6199 75.2696 27.4299 75.3196 27.2199C75.3696 27.0099 75.4396 26.7899 75.5096 26.5699C75.5796 26.3499 75.6696 26.1299 75.7596 25.9199C75.8596 25.7099 75.9796 25.5199 76.1296 25.3599C76.2796 25.1999 76.4596 25.0599 76.6796 24.9599C76.8996 24.8599 77.1596 24.8099 77.4696 24.8099C77.8296 24.8099 78.1396 24.8799 78.3996 25.0199C78.6596 25.1599 78.8796 25.3399 79.0596 25.5699C79.2296 25.7999 79.3596 26.0599 79.4496 26.3599C79.5296 26.6599 79.5796 26.9699 79.5796 27.2899C79.5796 27.5299 79.6196 27.7199 79.7096 27.8599C79.7996 27.9999 79.8896 28.1099 79.9996 28.1799C80.1096 28.2499 80.2196 28.2999 80.3296 28.3199C80.4396 28.3399 80.5096 28.3499 80.5496 28.3499H80.7396V29.3799H80.5396V29.3599ZM77.8796 28.5899C77.9096 28.5899 77.9496 28.5899 77.9896 28.5899C78.0296 28.5899 78.0796 28.5699 78.1296 28.5499C78.1796 28.5299 78.2396 28.4899 78.2896 28.4299C78.3396 28.3699 78.3896 28.2999 78.4296 28.2099C78.4696 28.1099 78.5096 27.9899 78.5296 27.8399C78.5596 27.6899 78.5696 27.5099 78.5696 27.2899C78.5696 27.2499 78.5696 27.1899 78.5596 27.0999C78.5496 27.0099 78.5396 26.9199 78.5096 26.8099C78.4796 26.6999 78.4496 26.5899 78.3996 26.4799C78.3496 26.3699 78.2796 26.2599 78.1996 26.1699C78.1196 26.0799 78.0096 25.9999 77.8896 25.9399C77.7696 25.8799 77.6196 25.8499 77.4496 25.8499C77.2896 25.8499 77.1496 25.8799 77.0396 25.9299C76.9296 25.9899 76.8296 26.0599 76.7596 26.1599C76.6796 26.2599 76.6196 26.3699 76.5696 26.5099C76.5196 26.6499 76.4696 26.7899 76.4296 26.9399C76.3896 27.0899 76.3396 27.2599 76.2996 27.4299C76.2596 27.5999 76.2096 27.7699 76.1496 27.9299C76.3396 28.0199 76.5096 28.1099 76.6696 28.1999C76.8296 28.2799 76.9796 28.3599 77.1196 28.4099C77.2596 28.4699 77.3896 28.5199 77.5096 28.5499C77.6396 28.5799 77.7596 28.5899 77.8796 28.5899Z" fill="#4286F3"></path><path d="M80.5098 29.36V28.33H81.4498C81.6998 28.33 81.9098 28.3 82.0598 28.25C82.2098 28.2 82.3298 28.13 82.4098 28.06C82.4898 27.98 82.5398 27.89 82.5698 27.8C82.5998 27.71 82.6098 27.61 82.6098 27.52V25.68H83.6398V27.48C83.6398 27.68 83.6798 27.84 83.7698 27.95C83.8498 28.06 83.9498 28.15 84.0598 28.2C84.0998 28.13 84.1498 28.06 84.1898 27.99C84.2298 27.92 84.2698 27.85 84.3198 27.77C84.4598 27.54 84.6098 27.3 84.7698 27.06C84.9198 26.82 85.0898 26.58 85.2598 26.35C85.4298 26.12 85.6098 25.9 85.7998 25.7C85.9898 25.5 86.1898 25.32 86.3998 25.17C86.6098 25.02 86.8298 24.9 87.0698 24.81C87.3098 24.72 87.5598 24.68 87.8198 24.68C88.0798 24.68 88.3498 24.73 88.5998 24.82C88.8598 24.92 89.0798 25.07 89.2798 25.27C89.4798 25.47 89.6398 25.73 89.7598 26.04C89.8798 26.35 89.9398 26.73 89.9398 27.16C89.9398 27.56 89.8698 27.91 89.7398 28.19C89.6098 28.47 89.4398 28.7 89.2198 28.87C89.0098 29.04 88.7698 29.17 88.5098 29.25C88.2498 29.33 87.9898 29.36 87.7398 29.36H84.6198C84.3598 29.36 84.1098 29.32 83.8798 29.24C83.6498 29.16 83.4398 29.05 83.2598 28.9C83.2198 28.87 83.1798 28.83 83.1298 28.79C82.9398 28.98 82.7098 29.11 82.4398 29.2C82.1698 29.29 81.8498 29.34 81.4898 29.35H80.5098V29.36ZM87.7398 28.33C87.9198 28.33 88.0798 28.31 88.2298 28.26C88.3798 28.21 88.4998 28.14 88.5998 28.04C88.6998 27.94 88.7798 27.82 88.8398 27.67C88.8998 27.52 88.9198 27.35 88.9198 27.16C88.9198 26.69 88.8198 26.34 88.6198 26.08C88.4198 25.82 88.1498 25.7 87.7998 25.7C87.5498 25.7 87.2998 25.78 87.0598 25.95C86.8198 26.11 86.5898 26.32 86.3698 26.58C86.1498 26.83 85.9398 27.12 85.7398 27.43C85.5398 27.74 85.3498 28.04 85.1698 28.34H87.7398V28.33ZM86.7598 22.61L87.6898 21.67L88.6398 22.62L87.6998 23.56L86.7598 22.61Z" fill="#4286F3"></path></svg>