<svg xmlns="http://www.w3.org/2000/svg" id="svg-8655" width="140" height="44" viewBox="0 0 140 44" fill="none"><path d="M113.921 34H83.9209C82.2709 34 80.9209 32.65 80.9209 31V3C80.9209 1.35 82.2709 0 83.9209 0H127.921C129.571 0 130.921 1.35 130.921 3V16.93C130.921 17.48 130.471 17.93 129.921 17.93C129.371 17.93 128.921 17.48 128.921 16.93V3C128.921 2.45 128.471 2 127.921 2H83.9209C83.3709 2 82.9209 2.45 82.9209 3V31C82.9209 31.55 83.3709 32 83.9209 32H113.921C114.471 32 114.921 32.45 114.921 33C114.921 33.55 114.471 34 113.921 34Z" fill="#575756"></path><path d="M105.921 26H87.9209C87.3709 26 86.9209 25.55 86.9209 25C86.9209 24.45 87.3709 24 87.9209 24H105.921C106.471 24 106.921 24.45 106.921 25C106.921 25.55 106.471 26 105.921 26Z" fill="#575756"></path><path d="M91.9209 22H87.9209C87.3709 22 86.9209 21.55 86.9209 21C86.9209 20.45 87.3709 20 87.9209 20H91.9209C92.4709 20 92.9209 20.45 92.9209 21C92.9209 21.55 92.4709 22 91.9209 22Z" fill="#575756"></path><path d="M99.9209 22H95.9209C95.3709 22 94.9209 21.55 94.9209 21C94.9209 20.45 95.3709 20 95.9209 20H99.9209C100.471 20 100.921 20.45 100.921 21C100.921 21.55 100.471 22 99.9209 22Z" fill="#575756"></path><path d="M129.921 14H81.9209C81.3709 14 80.9209 13.55 80.9209 13V7C80.9209 6.45 81.3709 6 81.9209 6H129.921C130.471 6 130.921 6.45 130.921 7V13C130.921 13.55 130.471 14 129.921 14ZM82.9209 12H128.921V8H82.9209V12Z" fill="#575756"></path><path d="M81.9205 14.0001C81.6605 14.0001 81.4105 13.9001 81.2105 13.7101C80.8205 13.3201 80.8205 12.6901 81.2105 12.3001L87.2105 6.30007C87.6005 5.91007 88.2305 5.91007 88.6205 6.30007C89.0105 6.69007 89.0105 7.32007 88.6205 7.71007L82.6205 13.7101C82.4305 13.9001 82.1705 14.0001 81.9205 14.0001Z" fill="#575756"></path><path d="M87.9205 14.0001C87.6605 14.0001 87.4105 13.9001 87.2105 13.7101C86.8205 13.3201 86.8205 12.6901 87.2105 12.3001L93.2105 6.30007C93.6005 5.91007 94.2305 5.91007 94.6205 6.30007C95.0105 6.69007 95.0105 7.32007 94.6205 7.71007L88.6205 13.7101C88.4305 13.9001 88.1705 14.0001 87.9205 14.0001Z" fill="#575756"></path><path d="M93.9205 14.0001C93.6605 14.0001 93.4105 13.9001 93.2105 13.7101C92.8205 13.3201 92.8205 12.6901 93.2105 12.3001L99.2105 6.30007C99.6005 5.91007 100.23 5.91007 100.62 6.30007C101.01 6.69007 101.01 7.32007 100.62 7.71007L94.6205 13.7101C94.4305 13.9001 94.1705 14.0001 93.9205 14.0001Z" fill="#575756"></path><path d="M99.9205 14.0001C99.6605 14.0001 99.4105 13.9001 99.2105 13.7101C98.8205 13.3201 98.8205 12.6901 99.2105 12.3001L105.21 6.30007C105.6 5.91007 106.23 5.91007 106.62 6.30007C107.01 6.69007 107.01 7.32007 106.62 7.71007L100.62 13.7101C100.43 13.9001 100.17 14.0001 99.9205 14.0001Z" fill="#575756"></path><path d="M105.92 14.0001C105.66 14.0001 105.41 13.9001 105.21 13.7101C104.82 13.3201 104.82 12.6901 105.21 12.3001L111.21 6.30007C111.6 5.91007 112.23 5.91007 112.62 6.30007C113.01 6.69007 113.01 7.32007 112.62 7.71007L106.62 13.7101C106.43 13.9001 106.17 14.0001 105.92 14.0001Z" fill="#575756"></path><path d="M111.92 14.0001C111.66 14.0001 111.41 13.9001 111.21 13.7101C110.82 13.3201 110.82 12.6901 111.21 12.3001L117.21 6.30007C117.6 5.91007 118.23 5.91007 118.62 6.30007C119.01 6.69007 119.01 7.32007 118.62 7.71007L112.62 13.7101C112.43 13.9001 112.17 14.0001 111.92 14.0001Z" fill="#575756"></path><path d="M117.92 14.0001C117.66 14.0001 117.41 13.9001 117.21 13.7101C116.82 13.3201 116.82 12.6901 117.21 12.3001L123.21 6.30007C123.6 5.91007 124.23 5.91007 124.62 6.30007C125.01 6.69007 125.01 7.32007 124.62 7.71007L118.62 13.7101C118.43 13.9001 118.17 14.0001 117.92 14.0001Z" fill="#575756"></path><path d="M123.92 14.0001C123.66 14.0001 123.41 13.9001 123.21 13.7101C122.82 13.3201 122.82 12.6901 123.21 12.3001L129.21 6.30007C129.6 5.91007 130.23 5.91007 130.62 6.30007C131.01 6.69007 131.01 7.32007 130.62 7.71007L124.62 13.7101C124.43 13.9001 124.17 14.0001 123.92 14.0001Z" fill="#575756"></path><path d="M127.921 37C126.821 37 125.921 36.1 125.921 35C125.921 33.9 126.821 33 127.921 33C129.021 33 129.921 33.9 129.921 35C129.921 36.1 129.021 37 127.921 37Z" fill="#575756"></path><path d="M136.921 44H118.921C117.271 44 115.921 42.65 115.921 41V31C115.921 29.35 117.271 28 118.921 28H136.921C138.571 28 139.921 29.35 139.921 31V41C139.921 42.65 138.571 44 136.921 44ZM118.921 30C118.371 30 117.921 30.45 117.921 31V41C117.921 41.55 118.371 42 118.921 42H136.921C137.471 42 137.921 41.55 137.921 41V31C137.921 30.45 137.471 30 136.921 30H118.921V30Z" fill="#575756"></path><path d="M134.921 30H120.921C120.371 30 119.921 29.55 119.921 29V26C119.921 21.59 123.511 18 127.921 18C132.331 18 135.921 21.59 135.921 26V29C135.921 29.55 135.471 30 134.921 30ZM121.921 28H133.921V26C133.921 22.69 131.231 20 127.921 20C124.611 20 121.921 22.69 121.921 26V28Z" fill="#575756"></path><path d="M127.921 40C127.371 40 126.921 39.55 126.921 39V37C126.921 36.45 127.371 36 127.921 36C128.471 36 128.921 36.45 128.921 37V39C128.921 39.55 128.471 40 127.921 40Z" fill="#575756"></path><path d="M11.51 19.8101V20.8401H11.35C11.08 20.8401 10.83 20.8001 10.6 20.7201C10.37 20.6401 10.15 20.5301 9.97 20.3801C9.95 20.3601 9.93 20.3401 9.9 20.3201C9.88 20.3001 9.86 20.2801 9.83 20.2601C9.44 20.6401 8.89 20.8401 8.16 20.8401H1.96C1.7 20.8401 1.46 20.8001 1.23 20.7101C1 20.6201 0.8 20.5001 0.63 20.3301C0.56 20.2601 0.48 20.1801 0.41 20.0901C0.34 20.0001 0.27 19.8801 0.21 19.7601C0.15 19.6301 0.1 19.4901 0.06 19.3301C0.02 19.1701 0 18.9901 0 18.7801C0 18.6001 0.02 18.4001 0.06 18.1801C0.1 17.9601 0.14 17.7501 0.19 17.5601C0.24 17.3601 0.28 17.1901 0.32 17.0501C0.36 16.9101 0.39 16.8201 0.4 16.7901L1.38 17.1001C1.35 17.1801 1.32 17.2801 1.28 17.4201C1.24 17.5601 1.2 17.7101 1.17 17.8701C1.13 18.0301 1.1 18.1901 1.07 18.3501C1.04 18.5101 1.03 18.6501 1.03 18.7701C1.03 19.0101 1.07 19.2001 1.14 19.3401C1.22 19.4801 1.31 19.5801 1.41 19.6501C1.51 19.7201 1.62 19.7601 1.72 19.7801C1.83 19.8001 1.91 19.8101 1.96 19.8101H8.1C8.37 19.8101 8.58 19.7801 8.74 19.7301C8.9 19.6801 9.02 19.6101 9.1 19.5201C9.18 19.4401 9.23 19.3501 9.26 19.2401C9.28 19.1401 9.3 19.0401 9.3 18.9501V17.0601H10.33V18.9301C10.33 19.1401 10.37 19.3001 10.46 19.4201C10.55 19.5401 10.65 19.6301 10.77 19.6801C10.89 19.7401 11 19.7701 11.11 19.7901C11.22 19.8001 11.3 19.8101 11.34 19.8101H11.51ZM4.06 16.6601L3.2 15.7801L4.05 14.9001L4.93 15.7801L4.06 16.6601ZM6.15 16.6701L5.29 15.8001L6.14 14.9201L7.02 15.8001L6.15 16.6701Z" fill="#4286F3"></path><path d="M18.6 18.66C18.58 18.67 18.48 18.74 18.32 18.85C18.15 18.96 17.93 19.1 17.65 19.26C17.37 19.42 17.05 19.6 16.68 19.78C16.31 19.97 15.91 20.14 15.48 20.29C15.05 20.45 14.61 20.58 14.14 20.68C13.67 20.78 13.21 20.84 12.74 20.84H11.25V19.81H12.74C13.15 19.81 13.56 19.76 13.98 19.67C14.4 19.57 14.8 19.45 15.18 19.31C15.56 19.17 15.93 19.01 16.26 18.84C16.59 18.67 16.89 18.51 17.15 18.36C16.8 18.22 16.44 18.08 16.09 17.94C15.74 17.81 15.42 17.69 15.13 17.58C14.84 17.47 14.59 17.39 14.38 17.33C14.17 17.27 14.03 17.23 13.96 17.21C13.9 17.21 13.83 17.22 13.77 17.23C13.71 17.24 13.64 17.27 13.57 17.33C13.5 17.38 13.44 17.47 13.38 17.58C13.32 17.7 13.26 17.86 13.21 18.06L12.21 17.8C12.49 16.72 13.08 16.19 13.98 16.19C14 16.19 14.03 16.19 14.07 16.19C14.11 16.19 14.16 16.2 14.23 16.22C14.3 16.24 14.39 16.26 14.51 16.3C14.63 16.34 14.77 16.38 14.95 16.44C15.13 16.5 15.35 16.58 15.61 16.68C15.87 16.78 16.18 16.9 16.54 17.04L18.47 17.75L18.6 18.66ZM12.8 13.97L13.73 13.03L14.68 13.98L13.74 14.92L12.8 13.97Z" fill="#4286F3"></path><path d="M21.1003 20.8401H20.0703V13.0601H21.1003V20.8401Z" fill="#4286F3"></path><path d="M25.1504 20.9301C24.9604 20.9301 24.7804 20.9201 24.5904 20.9101C24.4004 20.8901 24.2204 20.8701 24.0404 20.8301C23.8604 20.8001 23.6904 20.7501 23.5204 20.6901C23.3504 20.6301 23.2004 20.5601 23.0704 20.4801L22.6104 20.2301L23.1204 19.3301L23.5704 19.5901C23.7004 19.6601 23.8504 19.7201 24.0404 19.7701C24.2304 19.8201 24.4204 19.8501 24.6304 19.8701C24.8104 19.8901 24.9904 19.9001 25.1604 19.9001C25.1904 19.9001 25.2704 19.9001 25.3904 19.9001C25.5104 19.9001 25.6604 19.8801 25.8404 19.8601C26.0504 19.8301 26.2204 19.7801 26.3604 19.7201C26.5004 19.6601 26.5804 19.5901 26.6204 19.5101C26.6304 19.4701 26.6404 19.4301 26.6404 19.3901C26.6404 19.3301 26.6204 19.2401 26.5904 19.1301C26.5504 19.0201 26.4804 18.8801 26.3604 18.7001L24.3904 15.7201L25.2604 15.1501C25.3104 15.2201 25.3604 15.3001 25.4104 15.3801C25.4604 15.4601 25.5204 15.5501 25.5904 15.6501C25.6604 15.7501 25.7404 15.8801 25.8304 16.0201C25.9204 16.1601 26.0304 16.3301 26.1604 16.5201C26.2904 16.7201 26.4404 16.9401 26.6204 17.2101C26.8004 17.4801 27.0004 17.7801 27.2304 18.1301C27.3204 18.2701 27.4004 18.4101 27.4804 18.5601C27.5504 18.7101 27.6104 18.8601 27.6404 19.0201C27.6704 19.1601 27.6904 19.3001 27.6904 19.4401C27.6904 19.4501 27.6904 19.5001 27.6804 19.5901C27.6804 19.6801 27.6404 19.7901 27.5704 19.9401C27.3404 20.4501 26.8104 20.7701 25.9904 20.8901C25.8604 20.9101 25.7304 20.9201 25.5904 20.9301C25.4504 20.9201 25.3004 20.9301 25.1504 20.9301Z" fill="#4286F3"></path><path d="M32.2096 20.8399H31.9796C31.6296 20.8399 31.3096 20.7699 31.0196 20.6299C31.0196 21.1399 30.9496 21.5899 30.8096 21.9899C30.6696 22.3899 30.4596 22.7299 30.1896 23.0099C29.9196 23.2899 29.5796 23.4999 29.1796 23.6499C28.7796 23.7899 28.3196 23.8699 27.8096 23.8699H27.0596V22.8399H27.8096C28.1796 22.8399 28.5096 22.7999 28.7796 22.7099C29.0496 22.6199 29.2796 22.4799 29.4596 22.2999C29.6396 22.1199 29.7696 21.8799 29.8596 21.5899C29.9396 21.2999 29.9896 20.9599 29.9896 20.5599V17.1599H31.0196V18.9699C31.0196 19.1699 31.0596 19.3299 31.1496 19.4499C31.2296 19.5599 31.3296 19.6499 31.4496 19.6999C31.5596 19.7499 31.6696 19.7899 31.7796 19.7999C31.8896 19.8099 31.9496 19.8199 31.9896 19.8199H32.2196V20.8399H32.2096Z" fill="#4286F3"></path><path d="M35.7805 16.4001C35.7905 16.4201 35.8005 16.4801 35.8205 16.5701C35.8405 16.6601 35.8705 16.7801 35.8905 16.9201C35.9205 17.0601 35.9505 17.2101 35.9805 17.3801C36.0105 17.5501 36.0405 17.7201 36.0705 17.8901C36.1005 18.0601 36.1205 18.2301 36.1405 18.3901C36.1605 18.5501 36.1705 18.6901 36.1705 18.8101C36.1705 19.1601 36.1105 19.4601 36.0005 19.7101C35.8905 19.9601 35.7405 20.1701 35.5505 20.3401C35.3705 20.5101 35.1605 20.6301 34.9305 20.7101C34.7005 20.7901 34.4705 20.8301 34.2405 20.8301H31.9805V19.8001H34.2405C34.2905 19.8001 34.3705 19.7901 34.4705 19.7801C34.5705 19.7601 34.6705 19.7201 34.7705 19.6601C34.8705 19.6001 34.9605 19.5001 35.0305 19.3701C35.1005 19.2401 35.1405 19.0601 35.1405 18.8201C35.1405 18.7401 35.1305 18.6401 35.1205 18.5201C35.1105 18.4001 35.0905 18.2701 35.0705 18.1301C35.0505 17.9901 35.0305 17.8501 35.0005 17.7001C34.9705 17.5501 34.9505 17.4101 34.9205 17.2801C34.8905 17.1501 34.8705 17.0301 34.8505 16.9301C34.8305 16.8301 34.8105 16.7501 34.8005 16.7001L35.7805 16.4001ZM34.4005 22.7901L33.5205 23.6701L32.6705 22.7901L33.5305 21.9201L34.4005 22.7901ZM34.5905 25.1501L33.8005 24.3701L34.5605 23.6101L35.3305 24.3701L34.5905 25.1501ZM36.4905 22.7801L35.6105 23.6601L34.7605 22.7801L35.6205 21.9101L36.4905 22.7801Z" fill="#4286F3"></path><path d="M41.7101 22.8299C42.2601 22.8299 42.7201 22.7899 43.1001 22.6999C43.4701 22.6199 43.7701 22.4899 43.9901 22.3099C44.1801 22.1599 44.3201 21.9599 44.4101 21.7299C44.5001 21.4899 44.5401 21.1999 44.5401 20.8499H43.5401C43.2901 20.8499 43.0301 20.8099 42.7601 20.7399C42.5001 20.6599 42.2601 20.5399 42.0501 20.3599C41.8401 20.1899 41.6601 19.9599 41.5301 19.6799C41.4001 19.3999 41.3301 19.0499 41.3301 18.6499C41.3301 18.4099 41.3501 18.1899 41.3901 17.9999C41.4301 17.8099 41.4801 17.6299 41.5501 17.4799C41.6101 17.3299 41.6801 17.1899 41.7601 17.0799C41.8401 16.9699 41.9101 16.8699 41.9801 16.7899C42.1801 16.5899 42.4101 16.4399 42.6701 16.3299C42.9301 16.2199 43.2101 16.1699 43.5001 16.1699C43.7601 16.1699 44.0001 16.2099 44.2301 16.2899C44.4601 16.3699 44.6601 16.4899 44.8401 16.6499C45.3301 17.1099 45.5801 17.8299 45.5801 18.8099V20.8699C45.5801 21.3899 45.5001 21.8299 45.3501 22.1999C45.2001 22.5699 44.9701 22.8799 44.6501 23.1399C44.3301 23.3899 43.9301 23.5799 43.4601 23.6999C42.9901 23.8199 42.4101 23.8799 41.7301 23.8799V22.8299H41.7101ZM43.4901 17.1799C43.1301 17.1799 42.8501 17.3099 42.6501 17.5599C42.4501 17.8099 42.3501 18.1699 42.3501 18.6299C42.3501 19.0999 42.4901 19.4199 42.7801 19.6099C42.8501 19.6499 42.9201 19.6899 42.9901 19.7199C43.0601 19.7499 43.1301 19.7699 43.2001 19.7799C43.2701 19.7899 43.3301 19.7999 43.3901 19.8099C43.4501 19.8199 43.4901 19.8199 43.5301 19.8199H44.5301V18.7899C44.5301 18.5199 44.5101 18.2999 44.4701 18.1199C44.4301 17.9399 44.3801 17.7799 44.3201 17.6599C44.2601 17.5399 44.1901 17.4499 44.1101 17.3799C44.0301 17.3199 43.9501 17.2699 43.8801 17.2399C43.8101 17.2099 43.7301 17.1899 43.6601 17.1899C43.6001 17.1799 43.5401 17.1799 43.4901 17.1799Z" fill="#4286F3"></path><path d="M56.9399 19.8099V20.8399H56.7399C56.1999 20.8399 55.6999 20.6099 55.2399 20.1599C54.9699 20.5299 54.4899 20.7599 53.8099 20.8599C53.6799 20.8799 53.5499 20.8899 53.4099 20.8999C53.2699 20.9099 53.1199 20.9199 52.9699 20.9199C52.7799 20.9199 52.5999 20.9099 52.4099 20.8999C52.2199 20.8799 52.0399 20.8599 51.8599 20.8199C51.6799 20.7899 51.5099 20.7399 51.3399 20.6799C51.1699 20.6199 51.0199 20.5599 50.8899 20.4799L50.4199 20.2299L50.9299 19.3299L51.3799 19.5899C51.5099 19.6599 51.6599 19.7199 51.8499 19.7699C52.0299 19.8099 52.2299 19.8499 52.4399 19.8699C52.5999 19.8799 52.7499 19.8899 52.9099 19.8899C52.9599 19.8899 53.0599 19.8899 53.1899 19.8899C53.3199 19.8899 53.4799 19.8699 53.6599 19.8499C53.8699 19.8199 54.0399 19.7699 54.1799 19.7099C54.3199 19.6499 54.3999 19.5799 54.4399 19.4999C54.4699 19.4599 54.4899 19.4199 54.4899 19.3599C54.4899 19.3199 54.4799 19.2599 54.4499 19.1799C54.4199 19.0999 54.3699 18.9899 54.2799 18.8599L52.2299 15.7499L53.0999 15.1799L55.2199 18.4099C55.3299 18.5699 55.4399 18.7299 55.5499 18.8899C55.6599 19.0599 55.7799 19.2099 55.8999 19.3399C56.0199 19.4799 56.1499 19.5899 56.2899 19.6799C56.4299 19.7699 56.5799 19.8099 56.7399 19.8099H56.9399V19.8099Z" fill="#4286F3"></path><path d="M60.51 16.4001C60.52 16.4201 60.53 16.4801 60.55 16.5701C60.57 16.6601 60.6 16.7801 60.62 16.9201C60.65 17.0601 60.68 17.2101 60.71 17.3801C60.74 17.5501 60.77 17.7201 60.8 17.8901C60.83 18.0601 60.85 18.2301 60.87 18.3901C60.89 18.5501 60.9 18.6901 60.9 18.8101C60.9 19.1601 60.84 19.4601 60.73 19.7101C60.62 19.9601 60.47 20.1701 60.28 20.3401C60.1 20.5101 59.89 20.6301 59.66 20.7101C59.43 20.7901 59.2 20.8301 58.97 20.8301H56.71V19.8001H58.97C59.02 19.8001 59.1 19.7901 59.2 19.7801C59.3 19.7601 59.4 19.7201 59.5 19.6601C59.6 19.6001 59.69 19.5001 59.76 19.3701C59.83 19.2401 59.87 19.0601 59.87 18.8201C59.87 18.7401 59.86 18.6401 59.85 18.5201C59.84 18.4001 59.82 18.2701 59.8 18.1301C59.78 17.9901 59.76 17.8501 59.73 17.7001C59.7 17.5501 59.68 17.4101 59.65 17.2801C59.62 17.1501 59.6 17.0301 59.58 16.9301C59.56 16.8301 59.54 16.7501 59.53 16.7001L60.51 16.4001ZM58.88 22.9301L58 23.8101L57.15 22.9301L58.01 22.0601L58.88 22.9301ZM60.97 22.9201L60.09 23.8001L59.24 22.9201L60.1 22.0501L60.97 22.9201Z" fill="#4286F3"></path><path d="M66.8902 20.8399H66.6602C66.3102 20.8399 65.9902 20.7699 65.7002 20.6299C65.7002 21.1399 65.6302 21.5899 65.4902 21.9899C65.3502 22.3899 65.1402 22.7299 64.8702 23.0099C64.6002 23.2899 64.2602 23.4999 63.8602 23.6499C63.4602 23.7899 63.0002 23.8699 62.4902 23.8699H61.7402V22.8399H62.4902C62.8602 22.8399 63.1902 22.7999 63.4602 22.7099C63.7302 22.6199 63.9602 22.4799 64.1402 22.2999C64.3202 22.1199 64.4502 21.8799 64.5402 21.5899C64.6202 21.2999 64.6702 20.9599 64.6702 20.5599V17.1599H65.7002V18.9699C65.7002 19.1699 65.7402 19.3299 65.8302 19.4499C65.9102 19.5599 66.0102 19.6499 66.1302 19.6999C66.2402 19.7499 66.3502 19.7899 66.4602 19.7999C66.5702 19.8099 66.6302 19.8199 66.6702 19.8199H66.9002V20.8399H66.8902Z" fill="#4286F3"></path><path d="M74.0202 18.66C74.0002 18.67 73.9002 18.74 73.7402 18.85C73.5702 18.96 73.3502 19.1 73.0702 19.26C72.7902 19.42 72.4702 19.6 72.1002 19.78C71.7302 19.97 71.3302 20.14 70.9002 20.29C70.4702 20.45 70.0302 20.58 69.5602 20.68C69.0902 20.78 68.6302 20.84 68.1602 20.84H66.6602V19.81H68.1602C68.5702 19.81 68.9802 19.76 69.4002 19.67C69.8202 19.57 70.2202 19.45 70.6002 19.31C70.9902 19.17 71.3502 19.01 71.6902 18.84C72.0302 18.67 72.3202 18.51 72.5802 18.36C72.2302 18.22 71.8802 18.08 71.5302 17.94C71.1802 17.81 70.8602 17.69 70.5702 17.58C70.2802 17.47 70.0302 17.39 69.8202 17.33C69.6102 17.27 69.4702 17.23 69.4002 17.21C69.3402 17.21 69.2702 17.22 69.2102 17.23C69.1502 17.24 69.0802 17.27 69.0102 17.33C68.9402 17.38 68.8802 17.47 68.8202 17.58C68.7602 17.7 68.7002 17.86 68.6502 18.06L67.6502 17.8C67.9302 16.72 68.5202 16.19 69.4202 16.19C69.4402 16.19 69.4702 16.19 69.5102 16.19C69.5502 16.19 69.6002 16.2 69.6702 16.22C69.7402 16.24 69.8302 16.26 69.9502 16.3C70.0702 16.34 70.2102 16.38 70.3902 16.44C70.5702 16.5 70.7902 16.58 71.0502 16.68C71.3102 16.78 71.6202 16.9 71.9802 17.04L73.9102 17.75L74.0202 18.66ZM68.2302 13.97L69.1602 13.03L70.1102 13.98L69.1702 14.92L68.2302 13.97Z" fill="#4286F3"></path><path d="M42.66 38.8701C42.1 38.8701 41.58 38.7501 41.13 38.5001C40.67 38.2501 40.3 37.9101 40.02 37.4501C39.82 37.1401 39.68 36.8001 39.6 36.4201C39.53 36.1301 39.5 35.8201 39.5 35.5001C39.5 35.4101 39.51 35.2301 39.52 34.9601C39.53 34.7001 39.61 34.3301 39.74 33.8601C39.87 33.3901 40.06 32.9001 40.3 32.4001L41.23 32.8401C41.03 33.2601 40.87 33.6701 40.75 34.0501C40.63 34.4401 40.56 34.8001 40.53 35.1501C40.52 35.2701 40.52 35.3801 40.52 35.4901C40.52 35.7101 40.54 35.9401 40.59 36.1901C40.64 36.4401 40.74 36.6701 40.88 36.9101C41.07 37.2001 41.32 37.4301 41.62 37.5901C41.93 37.7501 42.27 37.8301 42.66 37.8301H43.94C44.36 37.8301 44.7 37.7901 44.96 37.7001C45.22 37.6101 45.43 37.4901 45.58 37.3301C45.73 37.1701 45.83 36.9801 45.88 36.7501C45.93 36.5201 45.96 36.2701 45.96 36.0001V32.1701H46.99V33.8701C46.99 34.0201 47.02 34.1501 47.07 34.2701C47.12 34.3901 47.19 34.4901 47.27 34.5701C47.35 34.6501 47.45 34.7201 47.57 34.7601C47.69 34.8001 47.82 34.8301 47.97 34.8301H48.18V35.8601H47.97C47.61 35.8601 47.29 35.7801 46.99 35.6301V36.0101C46.99 36.9701 46.74 37.6901 46.23 38.1701C45.72 38.6501 44.96 38.8901 43.94 38.8901H42.66V38.8701ZM42.69 31.7501L43.62 30.8101L44.57 31.7601L43.63 32.7001L42.69 31.7501Z" fill="#4286F3"></path><path d="M53.9204 34.8101V35.8401H52.9604C52.6304 35.8401 52.3404 35.7901 52.0804 35.7001C51.8304 35.6101 51.6204 35.4601 51.4704 35.2701C51.0904 35.6501 50.5304 35.8401 49.7904 35.8401H47.9404V34.8101H49.7904C50.0504 34.8101 50.2604 34.7801 50.4104 34.7301C50.5604 34.6801 50.6804 34.6101 50.7604 34.5301C50.8404 34.4501 50.8904 34.3601 50.9104 34.2701C50.9304 34.1701 50.9504 34.0801 50.9504 33.9901V32.1501H51.9804V33.9601C51.9804 34.0901 52.0004 34.2101 52.0404 34.3001C52.0804 34.3901 52.1304 34.4701 52.2004 34.5401C52.2704 34.6101 52.3304 34.6501 52.4104 34.6901C52.4904 34.7301 52.5604 34.7501 52.6404 34.7701C52.7104 34.7901 52.7804 34.8001 52.8404 34.8001C52.9004 34.8001 52.9404 34.8001 52.9704 34.8001H53.9204V34.8101ZM49.1304 31.4601L49.1804 30.7701L49.8604 30.5701C49.6604 30.4101 49.5304 30.2301 49.4604 30.0001C49.4304 29.9001 49.4104 29.8001 49.4104 29.7101C49.4104 29.6701 49.4204 29.6001 49.4304 29.5001C49.4404 29.4001 49.4804 29.2901 49.5604 29.1701C49.6304 29.0401 49.7204 28.9401 49.8404 28.8401C49.9504 28.7501 50.0804 28.6801 50.2204 28.6401C50.3204 28.6101 50.4204 28.5901 50.5104 28.5901C50.6104 28.5901 50.7004 28.5901 50.8004 28.6101C50.9004 28.6301 50.9804 28.6401 51.0604 28.6701C51.1404 28.7001 51.2204 28.7201 51.2904 28.7501L51.1504 29.3001C51.0904 29.2901 51.0204 29.2701 50.9504 29.2601C50.8804 29.2501 50.8104 29.2301 50.7404 29.2201C50.6704 29.2101 50.6104 29.2101 50.5404 29.2101C50.4804 29.2101 50.4304 29.2201 50.3904 29.2301C50.3304 29.2501 50.2704 29.2801 50.2204 29.3201C50.1704 29.3601 50.1204 29.4001 50.0904 29.4501C50.0604 29.5001 50.0304 29.5601 50.0204 29.6201C50.0204 29.6401 50.0104 29.6601 50.0104 29.6901C50.0104 29.7301 50.0204 29.7801 50.0304 29.8301C50.0504 29.9001 50.0904 29.9701 50.1504 30.0301C50.2104 30.0901 50.2904 30.1401 50.3904 30.1701C50.4904 30.2001 50.6104 30.2201 50.7604 30.2201C50.9104 30.2201 51.0704 30.1901 51.2604 30.1401L51.7204 30.0001L51.9104 30.5901L49.1304 31.4601Z" fill="#4286F3"></path><path d="M60.0904 35.84C59.8304 35.84 59.5804 35.8 59.3504 35.73C59.1204 35.65 58.9104 35.54 58.7304 35.4C58.6304 35.55 58.5204 35.68 58.4104 35.77C58.3004 35.86 58.1704 35.93 58.0604 35.98C57.9404 36.03 57.8304 36.06 57.7204 36.08C57.6104 36.1 57.5204 36.1 57.4404 36.1C57.2604 36.1 57.0904 36.08 56.9304 36.05C56.7704 36.01 56.6004 35.96 56.4304 35.89C56.2604 35.82 56.0804 35.74 55.8904 35.64C55.7004 35.54 55.5004 35.43 55.2704 35.31C54.9704 35.66 54.5904 35.84 54.1204 35.84H53.6904V34.81H54.1204C54.2604 34.81 54.3704 34.76 54.4604 34.66C54.5504 34.56 54.6304 34.43 54.6904 34.26C54.7604 34.1 54.8204 33.91 54.8704 33.7C54.9204 33.49 54.9904 33.27 55.0604 33.05C55.1304 32.83 55.2204 32.61 55.3104 32.4C55.4104 32.19 55.5304 32 55.6804 31.84C55.8304 31.68 56.0104 31.54 56.2304 31.44C56.4504 31.34 56.7104 31.29 57.0204 31.29C57.3804 31.29 57.6904 31.36 57.9504 31.5C58.2104 31.64 58.4304 31.82 58.6104 32.05C58.7804 32.28 58.9104 32.54 59.0004 32.84C59.0804 33.14 59.1304 33.45 59.1304 33.77C59.1304 34.01 59.1704 34.2 59.2604 34.34C59.3504 34.48 59.4404 34.59 59.5504 34.66C59.6604 34.73 59.7704 34.78 59.8804 34.8C59.9904 34.82 60.0604 34.83 60.1004 34.83H60.2904V35.86H60.0904V35.84ZM57.4304 35.08C57.4604 35.08 57.5004 35.08 57.5404 35.08C57.5804 35.08 57.6304 35.06 57.6804 35.04C57.7304 35.02 57.7904 34.98 57.8404 34.92C57.8904 34.86 57.9404 34.79 57.9804 34.7C58.0204 34.6 58.0604 34.48 58.0804 34.33C58.1104 34.18 58.1204 34 58.1204 33.78C58.1204 33.74 58.1204 33.68 58.1104 33.59C58.1004 33.5 58.0904 33.41 58.0604 33.3C58.0304 33.19 58.0004 33.08 57.9504 32.97C57.9004 32.86 57.8304 32.75 57.7504 32.66C57.6704 32.57 57.5604 32.49 57.4404 32.43C57.3204 32.37 57.1704 32.34 57.0004 32.34C56.8404 32.34 56.7004 32.37 56.5904 32.42C56.4804 32.48 56.3804 32.55 56.3104 32.65C56.2304 32.75 56.1704 32.86 56.1204 33C56.0704 33.14 56.0204 33.28 55.9804 33.43C55.9404 33.58 55.8904 33.75 55.8504 33.92C55.8104 34.09 55.7604 34.26 55.7004 34.42C55.8904 34.51 56.0604 34.6 56.2204 34.69C56.3804 34.77 56.5304 34.85 56.6704 34.9C56.8104 34.96 56.9404 35.01 57.0604 35.04C57.2004 35.06 57.3204 35.08 57.4304 35.08Z" fill="#4286F3"></path><path d="M68.2496 35.8401H60.0596V34.8101H61.2796C61.3696 34.6701 61.4596 34.5301 61.5496 34.3701C61.6396 34.2201 61.7296 34.0701 61.8196 33.9301V28.0601H62.8496V32.4601C63.0096 32.2701 63.1696 32.1001 63.3396 31.9401C63.5096 31.7801 63.6896 31.6401 63.8796 31.5201C64.0696 31.4001 64.2596 31.3101 64.4696 31.2401C64.6796 31.1701 64.8896 31.1401 65.1196 31.1401C65.3896 31.1401 65.6496 31.1901 65.9096 31.2901C66.1696 31.3901 66.3996 31.5401 66.5996 31.7401C66.7996 31.9401 66.9596 32.2001 67.0896 32.5101C67.2096 32.8201 67.2796 33.1901 67.2796 33.6201C67.2796 33.8601 67.2496 34.0801 67.2096 34.2701C67.1596 34.4601 67.0896 34.6401 67.0096 34.7901H68.2796V35.8401H68.2496ZM65.0496 34.8101C65.2196 34.8101 65.3696 34.7901 65.5196 34.7401C65.6596 34.6901 65.7896 34.6201 65.8896 34.5201C65.9896 34.4201 66.0796 34.3001 66.1396 34.1501C66.1996 34.0001 66.2296 33.8301 66.2296 33.6201C66.2296 33.1601 66.1296 32.8001 65.9396 32.5401C65.7396 32.2801 65.4696 32.1601 65.1196 32.1601C64.9496 32.1601 64.7896 32.2001 64.6296 32.2701C64.4696 32.3501 64.3096 32.4501 64.1596 32.5801C64.0096 32.7101 63.8596 32.8601 63.7096 33.0301C63.5596 33.2001 63.4196 33.3901 63.2896 33.5801C63.1496 33.7701 63.0196 33.9701 62.8896 34.1801C62.7596 34.3901 62.6396 34.5901 62.5196 34.7801C62.5096 34.7901 62.5096 34.7901 62.5096 34.8001H65.0496V34.8101Z" fill="#4286F3"></path><path d="M71.57 31.29C71.93 31.29 72.24 31.36 72.5 31.5C72.76 31.64 72.98 31.82 73.16 32.05C73.33 32.28 73.46 32.54 73.55 32.84C73.63 33.14 73.68 33.45 73.68 33.77C73.68 34.12 73.65 34.43 73.59 34.68C73.53 34.93 73.45 35.15 73.35 35.32C73.25 35.49 73.14 35.63 73.02 35.74C72.9 35.85 72.77 35.93 72.65 35.98C72.52 36.03 72.4 36.07 72.29 36.09C72.18 36.11 72.07 36.12 71.99 36.12C71.81 36.12 71.64 36.1 71.48 36.07C71.32 36.03 71.15 35.98 70.98 35.91C70.81 35.84 70.63 35.76 70.44 35.66C70.25 35.56 70.05 35.45 69.82 35.33C69.52 35.68 69.14 35.86 68.67 35.86H68.04V34.83H68.67C68.81 34.83 68.92 34.78 69.01 34.68C69.1 34.58 69.18 34.45 69.24 34.28C69.31 34.12 69.37 33.93 69.42 33.72C69.47 33.51 69.54 33.29 69.61 33.07C69.68 32.85 69.77 32.63 69.86 32.42C69.96 32.21 70.08 32.02 70.23 31.86C70.38 31.7 70.56 31.56 70.78 31.46C71 31.34 71.27 31.29 71.57 31.29ZM71.99 35.08C72.02 35.08 72.05 35.08 72.1 35.08C72.14 35.08 72.19 35.06 72.25 35.04C72.31 35.02 72.36 34.98 72.41 34.92C72.46 34.86 72.51 34.79 72.55 34.7C72.59 34.6 72.63 34.48 72.65 34.33C72.68 34.18 72.69 34 72.69 33.78C72.69 33.74 72.69 33.68 72.68 33.59C72.67 33.5 72.66 33.41 72.63 33.3C72.6 33.19 72.57 33.08 72.52 32.97C72.47 32.86 72.4 32.75 72.32 32.66C72.24 32.57 72.13 32.49 72.01 32.43C71.89 32.37 71.74 32.34 71.57 32.34C71.41 32.34 71.28 32.37 71.16 32.42C71.05 32.48 70.96 32.55 70.88 32.65C70.8 32.75 70.74 32.86 70.69 33C70.64 33.14 70.59 33.28 70.55 33.43C70.51 33.58 70.46 33.75 70.42 33.92C70.38 34.09 70.33 34.26 70.27 34.42C70.46 34.51 70.63 34.6 70.79 34.69C70.95 34.77 71.1 34.85 71.24 34.9C71.38 34.96 71.51 35.01 71.63 35.04C71.75 35.06 71.87 35.08 71.99 35.08Z" fill="#4286F3"></path></svg>