<svg xmlns="http://www.w3.org/2000/svg" id="svg-2492" width="136" height="43" viewBox="0 0 136 43" fill="none"><path d="M70.6896 21.47H66.1396C65.5896 21.47 65.1396 21.02 65.1396 20.47C65.1396 19.92 65.5896 19.47 66.1396 19.47H70.6896C71.2396 19.47 71.6896 19.92 71.6896 20.47C71.6896 21.02 71.2396 21.47 70.6896 21.47Z" fill="#575756"></path><path d="M131.76 36.06H122.97V34.06H131.76C132.36 34.06 132.88 33.56 132.91 32.94L133.28 24.77C133.29 24.49 133.2 24.23 133.02 24.04C132.84 23.85 132.59 23.75 132.32 23.75L125.64 23.82C124.72 23.82 123.84 23.4 123.29 22.68L114.13 10.67C113.96 10.44 113.69 10.32 113.38 10.32H106.44C105.62 10.32 104.86 10 104.29 9.41C103.73 8.82 103.44 8.03 103.48 7.21V6.98C103.48 4.18 101.28 1.99 98.4801 1.99H75.9101C72.9701 1.99 70.4701 4.38 70.3301 7.31L68.3301 7.22C68.5201 3.24 71.9101 0 75.9001 0H98.4501C102.38 0 105.45 3.07 105.45 6.99V7.27C105.44 7.6 105.53 7.85 105.71 8.05C105.89 8.24 106.14 8.34 106.41 8.34H113.35C114.28 8.34 115.13 8.75 115.69 9.48L124.85 21.49C125.02 21.71 125.3 21.84 125.6 21.84L132.28 21.77C133.11 21.77 133.87 22.09 134.43 22.67C134.99 23.25 135.28 24.03 135.25 24.85L135.22 25.83L134.88 33.05C134.83 34.71 133.42 36.06 131.76 36.06Z" fill="#575756"></path><path d="M78.6898 36.1301H74.3498C72.3998 36.1301 70.5898 35.3601 69.2598 33.9701C67.9298 32.5801 67.2598 30.7401 67.3498 28.8001L67.5798 23.1001L69.5798 23.1801L69.3498 28.8901C69.2798 30.2901 69.7698 31.6001 70.7098 32.6001C71.6598 33.5901 72.9498 34.1401 74.3498 34.1401H78.6898V36.1301Z" fill="#575756"></path><path d="M98.9492 36.1301H89.6592V34.1301H98.9492C99.0692 34.1301 99.1892 34.1101 99.3092 34.1001L99.6092 34.0701H112.019V36.0701L99.5692 36.0801C99.3592 36.1001 99.1592 36.1301 98.9492 36.1301Z" fill="#575756"></path><path d="M84.1692 42.1799C80.5792 42.1799 77.6592 39.2599 77.6592 35.6699C77.6592 32.0799 80.5792 29.1599 84.1692 29.1599C87.7592 29.1599 90.6792 32.0799 90.6792 35.6699C90.6792 39.2599 87.7592 42.1799 84.1692 42.1799ZM84.1692 31.1599C81.6792 31.1599 79.6592 33.1799 79.6592 35.6699C79.6592 38.1599 81.6792 40.1799 84.1692 40.1799C86.6592 40.1799 88.6792 38.1599 88.6792 35.6699C88.6792 33.1799 86.6592 31.1599 84.1692 31.1599Z" fill="#575756"></path><path d="M117.489 42.1799C113.899 42.1799 110.979 39.2599 110.979 35.6699C110.979 32.0799 113.899 29.1599 117.489 29.1599C121.079 29.1599 123.999 32.0799 123.999 35.6699C123.999 39.2599 121.079 42.1799 117.489 42.1799ZM117.489 31.1599C114.999 31.1599 112.979 33.1799 112.979 35.6699C112.979 38.1599 114.999 40.1799 117.489 40.1799C119.979 40.1799 121.999 38.1599 121.999 35.6699C121.999 33.1799 119.979 31.1599 117.489 31.1599Z" fill="#575756"></path><path d="M80.6296 11.3401H66.1396C65.5896 11.3401 65.1396 10.8901 65.1396 10.3401C65.1396 9.79009 65.5896 9.34009 66.1396 9.34009H80.6296C81.1796 9.34009 81.6296 9.79009 81.6296 10.3401C81.6296 10.8901 81.1796 11.3401 80.6296 11.3401Z" fill="#575756"></path><path d="M74.5096 16.4099H66.1396C65.5896 16.4099 65.1396 15.9599 65.1396 15.4099C65.1396 14.8599 65.5896 14.4099 66.1396 14.4099H74.5096C75.0596 14.4099 75.5096 14.8599 75.5096 15.4099C75.5096 15.9599 75.0596 16.4099 74.5096 16.4099Z" fill="#575756"></path><path d="M113.83 24.1001L107.49 24.0901C106.49 24.0901 105.54 23.6601 104.88 22.9101C104.22 22.1601 103.91 21.1601 104.04 20.1701L104.42 17.1301C104.49 16.5801 104.99 16.1901 105.54 16.2601C106.09 16.3301 106.48 16.8301 106.41 17.3801L106.03 20.4201C105.98 20.8501 106.11 21.2601 106.39 21.5901C106.68 21.9101 107.07 22.0901 107.5 22.0901L113.83 22.1001C114.38 22.1001 114.83 22.5501 114.83 23.1001C114.83 23.6501 114.39 24.1001 113.83 24.1001Z" fill="#575756"></path><path d="M6.04 26.63H3.51C3.35 26.63 3.18 26.62 2.99 26.61C2.8 26.6 2.61 26.57 2.41 26.53C2.21 26.49 2.01 26.43 1.81 26.36C1.61 26.29 1.41 26.19 1.22 26.07C0.82 25.82 0.51 25.5 0.31 25.11C0.11 24.72 0 24.27 0 23.75C0 23.4 0.08 23.07 0.25 22.76C0.41 22.45 0.66 22.14 1 21.83C1.23 21.63 1.47 21.44 1.74 21.26C2.01 21.08 2.28 20.91 2.57 20.74C2.39 20.56 2.22 20.39 2.05 20.22C1.89 20.05 1.75 19.9 1.62 19.77C1.49 19.64 1.39 19.53 1.32 19.45C1.25 19.37 1.2 19.32 1.2 19.31L1.06 18.97C1.06 18.9 1.06 18.82 1.07 18.74C1.08 18.66 1.09 18.57 1.11 18.48C1.13 18.39 1.16 18.31 1.21 18.22C1.26 18.13 1.31 18.05 1.38 17.96C1.53 17.8 1.71 17.68 1.92 17.61C2.14 17.54 2.4 17.5 2.71 17.5H4.5C4.8 17.5 5.07 17.57 5.31 17.72C5.55 17.87 5.73 18.06 5.84 18.31C5.92 18.49 5.97 18.68 5.97 18.87C5.97 18.94 5.96 19.05 5.93 19.22C5.9 19.39 5.79 19.58 5.61 19.81C5.44 20.02 5.23 20.21 5 20.39C4.77 20.57 4.52 20.74 4.27 20.9C4.4 21.01 4.52 21.1 4.61 21.17C4.7 21.24 4.78 21.29 4.85 21.33C4.91 21.37 4.96 21.4 4.99 21.41C5.02 21.42 5.05 21.43 5.06 21.44H7.1V22.47H5.05C4.98 22.47 4.89 22.46 4.8 22.43C4.71 22.4 4.59 22.36 4.46 22.29C4.33 22.22 4.17 22.12 3.99 21.99C3.81 21.86 3.59 21.68 3.35 21.47C3.06 21.64 2.78 21.81 2.5 21.99C2.22 22.17 1.98 22.35 1.76 22.53C1.55 22.72 1.37 22.91 1.24 23.11C1.11 23.31 1.04 23.52 1.04 23.74C1.04 24.01 1.08 24.24 1.16 24.44C1.24 24.64 1.35 24.8 1.48 24.94C1.61 25.08 1.76 25.19 1.94 25.27C2.11 25.36 2.29 25.42 2.47 25.47C2.65 25.52 2.83 25.55 3.02 25.57C3.21 25.59 3.37 25.59 3.52 25.59H6.04V26.63ZM2.1 18.78C2.15 18.84 2.22 18.92 2.31 19.01C2.39 19.1 2.49 19.2 2.6 19.31C2.71 19.42 2.82 19.54 2.94 19.66C3.06 19.78 3.18 19.91 3.31 20.03L3.48 20.18C3.75 20.02 4.01 19.85 4.24 19.68C4.47 19.51 4.67 19.33 4.82 19.14C4.9 19.05 4.95 18.96 4.95 18.86C4.95 18.82 4.94 18.78 4.93 18.74C4.89 18.68 4.84 18.62 4.76 18.59C4.69 18.55 4.6 18.54 4.51 18.54H2.72C2.61 18.54 2.53 18.54 2.46 18.55C2.39 18.56 2.33 18.57 2.29 18.59C2.25 18.6 2.22 18.62 2.2 18.63C2.18 18.64 2.17 18.65 2.16 18.65C2.12 18.69 2.11 18.73 2.1 18.78Z" fill="#4286F3"></path><path d="M10.6701 18.03C10.6801 18.05 10.6901 18.11 10.7101 18.2C10.7301 18.29 10.7601 18.41 10.7801 18.55C10.8101 18.69 10.8401 18.84 10.8701 19.01C10.9001 19.18 10.9301 19.35 10.9601 19.52C10.9901 19.69 11.0101 19.86 11.0301 20.02C11.0501 20.18 11.0601 20.32 11.0601 20.44C11.0601 20.79 11.0001 21.09 10.8901 21.34C10.7801 21.59 10.6301 21.8 10.4401 21.97C10.2601 22.14 10.0501 22.26 9.82012 22.34C9.59012 22.42 9.36012 22.46 9.13012 22.46H6.87012V21.43H9.13012C9.18012 21.43 9.26012 21.42 9.36012 21.41C9.46012 21.39 9.56012 21.35 9.66012 21.29C9.76012 21.22 9.85012 21.13 9.92012 21C10.0001 20.87 10.0301 20.69 10.0301 20.45C10.0301 20.37 10.0201 20.27 10.0101 20.15C10.0001 20.03 9.98012 19.9 9.96012 19.76C9.94012 19.62 9.92012 19.48 9.89012 19.33C9.86012 19.18 9.84012 19.04 9.81012 18.91C9.78012 18.78 9.76012 18.66 9.74012 18.56C9.72012 18.46 9.70012 18.38 9.69012 18.33L10.6701 18.03ZM9.04012 24.56L8.16012 25.44L7.31012 24.56L8.17012 23.69L9.04012 24.56ZM11.1301 24.55L10.2501 25.43L9.40012 24.55L10.2601 23.68L11.1301 24.55Z" fill="#4286F3"></path><path d="M17.0504 22.47H16.8204C16.4704 22.47 16.1504 22.4 15.8604 22.26C15.8604 22.77 15.7904 23.22 15.6504 23.62C15.5104 24.02 15.3004 24.36 15.0304 24.64C14.7604 24.92 14.4204 25.13 14.0204 25.28C13.6204 25.42 13.1604 25.5 12.6504 25.5H11.9004V24.47H12.6504C13.0204 24.47 13.3504 24.43 13.6204 24.34C13.8904 24.25 14.1204 24.11 14.3004 23.93C14.4804 23.75 14.6104 23.51 14.7004 23.22C14.7804 22.93 14.8304 22.59 14.8304 22.19V18.79H15.8604V20.6C15.8604 20.8 15.9004 20.96 15.9904 21.08C16.0704 21.19 16.1704 21.28 16.2904 21.33C16.4004 21.38 16.5104 21.42 16.6204 21.43C16.7304 21.44 16.7904 21.45 16.8304 21.45H17.0604V22.47H17.0504Z" fill="#4286F3"></path><path d="M21.0898 22.46C20.7498 22.46 20.4398 22.41 20.1798 22.31C19.9098 22.21 19.6898 22.07 19.5098 21.88C19.3198 22.08 19.0998 22.23 18.8498 22.33C18.5998 22.43 18.3498 22.47 18.0898 22.47H16.8398V21.44H18.0898C18.1398 21.44 18.2198 21.43 18.3198 21.42C18.4198 21.41 18.5198 21.36 18.6198 21.29C18.7198 21.22 18.7998 21.12 18.8798 20.99C18.9498 20.86 18.9898 20.67 18.9898 20.44V18.79H20.0198V20.42C20.0198 20.77 20.0998 21.03 20.2698 21.19C20.4398 21.35 20.7098 21.44 21.0898 21.44C21.1398 21.44 21.2198 21.43 21.3198 21.41C21.4198 21.39 21.5198 21.35 21.6198 21.28C21.7198 21.21 21.8098 21.11 21.8798 20.97C21.9498 20.84 21.9898 20.65 21.9898 20.42V18.79H23.0198V20.42C23.0198 20.77 23.1098 21.03 23.2798 21.2C23.4498 21.37 23.7298 21.45 24.0998 21.45C24.1598 21.45 24.2398 21.44 24.3298 21.41C24.4298 21.39 24.5298 21.34 24.6198 21.27C24.7198 21.2 24.7998 21.09 24.8698 20.96C24.9398 20.83 24.9698 20.65 24.9698 20.42C24.9698 20.34 24.9598 20.24 24.9498 20.12C24.9398 20 24.9198 19.87 24.8998 19.73C24.8798 19.59 24.8598 19.45 24.8298 19.31C24.7998 19.17 24.7798 19.03 24.7498 18.91C24.7198 18.78 24.6998 18.67 24.6798 18.57C24.6598 18.47 24.6398 18.4 24.6298 18.35L25.6098 18.04C25.6198 18.06 25.6298 18.12 25.6498 18.21C25.6698 18.3 25.6998 18.42 25.7298 18.55C25.7598 18.69 25.7898 18.84 25.8198 19.01C25.8498 19.18 25.8798 19.34 25.9098 19.51C25.9398 19.68 25.9598 19.84 25.9798 20C25.9998 20.16 26.0098 20.3 26.0098 20.42C26.0098 20.77 25.9498 21.07 25.8398 21.32C25.7298 21.58 25.5798 21.79 25.3998 21.96C25.2198 22.13 25.0198 22.26 24.7898 22.34C24.5598 22.43 24.3298 22.47 24.0998 22.47C23.7498 22.47 23.4398 22.42 23.1798 22.31C22.9098 22.21 22.6898 22.06 22.4998 21.86C22.3098 22.06 22.0898 22.21 21.8398 22.31C21.5898 22.41 21.3398 22.46 21.0898 22.46Z" fill="#4286F3"></path><path d="M33.6199 25.4899C33.1299 25.4899 32.6899 25.3799 32.2899 25.1699C31.8899 24.9599 31.5699 24.6599 31.3199 24.2699C31.2199 24.1099 31.1299 23.9099 31.0399 23.6499C30.9499 23.3899 30.8999 23.0899 30.8799 22.7299C30.8799 22.6799 30.8799 22.6199 30.8799 22.5599C30.8799 22.2399 30.9199 21.8699 31.0099 21.4399C31.0999 21.0099 31.2799 20.5099 31.5599 19.9199L32.4899 20.3599C32.3199 20.7099 32.1899 21.0399 32.0899 21.3599C31.9899 21.6799 31.9299 21.9799 31.9099 22.2699C31.8999 22.3699 31.8999 22.4599 31.8999 22.5599C31.8999 22.7299 31.9199 22.9199 31.9499 23.1199C31.9899 23.3199 32.0599 23.5199 32.1799 23.7099C32.3299 23.9399 32.5299 24.1199 32.7799 24.2499C33.0299 24.3799 33.2999 24.4399 33.6099 24.4399H33.9999C34.4199 24.4399 34.7499 24.3999 35.0199 24.3099C35.2899 24.2199 35.4899 24.0999 35.6399 23.9399C35.7899 23.7799 35.8899 23.5799 35.9399 23.3599C35.9899 23.1299 36.0199 22.8799 36.0199 22.5999V14.6799H37.0299V22.5999C37.0299 24.5099 36.0199 25.4699 33.9999 25.4799H33.6199V25.4899Z" fill="#4286F3"></path><path d="M41.1903 22.4699C40.8103 22.4699 40.4903 22.4399 40.2403 22.3899C39.9903 22.3399 39.7803 22.2699 39.6103 22.1799C39.4403 22.0899 39.3003 21.9699 39.2003 21.8299C39.1003 21.6899 39.0203 21.5299 38.9603 21.3399C38.9003 21.1499 38.8603 20.9399 38.8503 20.7099C38.8403 20.4799 38.8203 20.2199 38.8203 19.9399V14.6899H39.8403V19.9399C39.8403 20.2599 39.8503 20.5099 39.8703 20.7099C39.8903 20.9099 39.9403 21.0599 40.0303 21.1699C40.1203 21.2799 40.2403 21.3499 40.4203 21.3899C40.6003 21.4299 40.8503 21.4499 41.1903 21.4499V22.4699Z" fill="#4286F3"></path><path d="M45.2305 22.46C44.8905 22.46 44.5805 22.41 44.3205 22.31C44.0505 22.21 43.8305 22.07 43.6505 21.88C43.4605 22.08 43.2405 22.23 42.9905 22.33C42.7405 22.43 42.4905 22.47 42.2305 22.47H40.9805V21.44H42.2305C42.2805 21.44 42.3605 21.43 42.4605 21.42C42.5605 21.41 42.6605 21.36 42.7605 21.29C42.8605 21.22 42.9405 21.12 43.0205 20.99C43.0905 20.86 43.1305 20.67 43.1305 20.44V18.79H44.1605V20.42C44.1605 20.77 44.2405 21.03 44.4105 21.19C44.5805 21.35 44.8505 21.44 45.2305 21.44C45.2805 21.44 45.3605 21.43 45.4605 21.41C45.5605 21.39 45.6605 21.35 45.7605 21.28C45.8605 21.21 45.9505 21.11 46.0205 20.97C46.0905 20.84 46.1305 20.65 46.1305 20.42V18.79H47.1605V20.42C47.1605 20.77 47.2505 21.03 47.4205 21.2C47.5905 21.37 47.8705 21.45 48.2405 21.45C48.3005 21.45 48.3805 21.44 48.4705 21.41C48.5705 21.39 48.6705 21.34 48.7605 21.27C48.8605 21.2 48.9405 21.09 49.0105 20.96C49.0805 20.83 49.1105 20.65 49.1105 20.42C49.1105 20.34 49.1005 20.24 49.0905 20.12C49.0805 20 49.0605 19.87 49.0405 19.73C49.0205 19.59 49.0005 19.45 48.9705 19.31C48.9405 19.17 48.9205 19.03 48.8905 18.91C48.8605 18.78 48.8405 18.67 48.8205 18.57C48.8005 18.47 48.7805 18.4 48.7705 18.35L49.7505 18.04C49.7605 18.06 49.7705 18.12 49.7905 18.21C49.8105 18.3 49.8405 18.42 49.8705 18.55C49.9005 18.69 49.9305 18.84 49.9605 19.01C49.9905 19.18 50.0205 19.34 50.0505 19.51C50.0805 19.68 50.1005 19.84 50.1205 20C50.1405 20.16 50.1505 20.3 50.1505 20.42C50.1505 20.77 50.0905 21.07 49.9805 21.32C49.8705 21.58 49.7205 21.79 49.5405 21.96C49.3605 22.13 49.1605 22.26 48.9305 22.34C48.7005 22.43 48.4705 22.47 48.2405 22.47C47.8905 22.47 47.5805 22.42 47.3205 22.31C47.0505 22.21 46.8305 22.06 46.6405 21.86C46.4505 22.06 46.2305 22.21 45.9805 22.31C45.7305 22.41 45.4805 22.46 45.2305 22.46Z" fill="#4286F3"></path><path d="M49.7402 25.5V24.47H50.4902C50.8602 24.47 51.1902 24.43 51.4602 24.34C51.7302 24.25 51.9602 24.11 52.1402 23.93C52.3202 23.75 52.4502 23.51 52.5402 23.22C52.6202 22.93 52.6702 22.59 52.6702 22.19V18.79H53.7002V22.19C53.7002 22.71 53.6302 23.17 53.4902 23.58C53.3502 23.99 53.1502 24.33 52.8802 24.62C52.6102 24.9 52.2802 25.12 51.8702 25.27C51.4702 25.42 51.0002 25.5 50.4802 25.5H49.7402V25.5Z" fill="#4286F3"></path><path d="M56.3698 22.4699H55.3398V14.6899H56.3698V22.4699Z" fill="#4286F3"></path></svg>