<svg xmlns="http://www.w3.org/2000/svg" id="svg-6972" width="140" height="45" viewBox="0 0 140 45" fill="none"><path d="M116.099 44.39H112.439C110.879 44.39 109.609 43.12 109.609 41.56C109.609 40 110.879 38.73 112.439 38.73H116.099C117.659 38.73 118.929 40 118.929 41.56C118.929 43.12 117.659 44.39 116.099 44.39ZM112.449 40.73C111.989 40.73 111.619 41.1 111.619 41.56C111.619 42.02 111.989 42.39 112.449 42.39H116.109C116.569 42.39 116.939 42.02 116.939 41.56C116.939 41.1 116.569 40.73 116.109 40.73H112.449Z" fill="#575756"></path><path d="M134 19.04C133.53 19.04 133.11 18.71 133.02 18.23C131.22 8.82 122.95 1.99 113.36 1.99C108.02 1.99 102.99 4.07 99.1996 7.86C96.3496 10.71 94.4396 14.3 93.6996 18.23C93.5996 18.77 93.0696 19.13 92.5296 19.03C91.9896 18.93 91.6296 18.4 91.7296 17.86C92.5496 13.53 94.6496 9.59 97.7896 6.45C101.96 2.29 107.49 0 113.37 0C123.92 0 133.01 7.51 134.99 17.86C135.09 18.4 134.74 18.93 134.2 19.03C134.13 19.03 134.06 19.04 134 19.04Z" fill="#575756"></path><path d="M127.07 42.56H117.93C117.38 42.56 116.93 42.11 116.93 41.56C116.93 41.01 117.38 40.56 117.93 40.56H127.07C130.06 40.56 132.66 38.43 133.25 35.49C133.36 34.95 133.88 34.59 134.43 34.71C134.97 34.82 135.32 35.34 135.21 35.89C134.44 39.75 131.02 42.56 127.07 42.56Z" fill="#575756"></path><path d="M135.329 36.6901H132.689C130.579 36.6901 128.859 34.97 128.859 32.86V20.88C128.859 18.77 130.579 17.05 132.689 17.05H135.329C137.439 17.05 139.159 18.77 139.159 20.88V32.85C139.169 34.97 137.449 36.6901 135.329 36.6901ZM132.689 19.04C131.679 19.04 130.859 19.86 130.859 20.87V32.84C130.859 33.85 131.679 34.67 132.689 34.67H135.329C136.339 34.67 137.159 33.85 137.159 32.84V20.88C137.159 19.87 136.339 19.05 135.329 19.05H132.689V19.04Z" fill="#575756"></path><path d="M94.0296 36.6901H91.3896C89.2796 36.6901 87.5596 34.97 87.5596 32.86V20.88C87.5596 18.77 89.2796 17.05 91.3896 17.05H94.0296C96.1396 17.05 97.8596 18.77 97.8596 20.88V32.85C97.8596 34.97 96.1396 36.6901 94.0296 36.6901ZM91.3896 19.04C90.3796 19.04 89.5596 19.86 89.5596 20.87V32.84C89.5596 33.85 90.3796 34.67 91.3896 34.67H94.0296C95.0396 34.67 95.8596 33.85 95.8596 32.84V20.88C95.8596 19.87 95.0396 19.05 94.0296 19.05H91.3896V19.04Z" fill="#575756"></path><path d="M98.4194 15.01C98.2894 15.01 98.1494 14.98 98.0194 14.93C97.5094 14.71 97.2794 14.12 97.4994 13.61C100.079 7.7 105.919 3.87 112.369 3.87C112.919 3.87 113.369 4.32 113.369 4.87C113.369 5.42 112.919 5.87 112.369 5.87C106.709 5.87 101.589 9.22 99.3294 14.41C99.1794 14.79 98.8094 15.01 98.4194 15.01Z" fill="#575756"></path><path d="M4.4 28.0601C4.76 28.0601 5.08 28.0301 5.35 27.9701C5.62 27.9101 5.84 27.8001 6.01 27.6701C6.18 27.5301 6.31 27.3501 6.4 27.1301C6.48 26.9101 6.53 26.6401 6.53 26.3201C6.17 26.2201 5.83 26.1301 5.49 26.0401C5.35 26.0001 5.2 25.9601 5.04 25.9201C4.88 25.8801 4.73 25.8401 4.57 25.7901C4.42 25.7501 4.26 25.7101 4.12 25.6701C3.97 25.6301 3.84 25.6001 3.71 25.5701C3.55 25.1801 3.47 24.8001 3.47 24.4201C3.47 24.4001 3.47 24.2801 3.48 24.0701C3.49 23.8601 3.56 23.5801 3.71 23.2401C3.86 22.9001 4.07 22.5801 4.34 22.3101C4.61 22.0401 4.93 21.8201 5.28 21.6501C5.64 21.4901 6.03 21.3901 6.45 21.3501C6.53 21.3401 6.62 21.3401 6.71 21.3401C7.05 21.3401 7.4 21.3901 7.76 21.5001L7.5 22.4901C7.25 22.4101 7 22.3801 6.75 22.3801C6.5 22.3801 6.25 22.4201 6.02 22.4901C5.79 22.5601 5.57 22.6601 5.37 22.8001C5.17 22.9301 5 23.1001 4.86 23.2801C4.72 23.4701 4.62 23.6801 4.56 23.9101C4.52 24.0601 4.49 24.2201 4.49 24.3801C4.49 24.4701 4.5 24.5701 4.51 24.6601L6.6 25.1801C6.89 25.2601 7.11 25.3901 7.25 25.5701C7.39 25.7501 7.47 25.9701 7.47 26.2401C7.47 26.7201 7.41 27.1301 7.3 27.4901C7.19 27.8501 7.01 28.1501 6.76 28.3801C6.51 28.6201 6.19 28.8001 5.8 28.9201C5.43 29.0401 4.95 29.1001 4.4 29.1001H3.19C2.91 29.1001 2.65 29.0701 2.39 29.0001C2.13 28.9301 1.89 28.8301 1.66 28.7101C1.43 28.5901 1.22 28.4401 1.03 28.2601C0.84 28.0901 0.67 27.8901 0.52 27.6801C0.35 27.4001 0.22 27.1001 0.13 26.7701C0.04 26.4401 0 26.0901 0 25.7201C0 25.2601 0.07 24.7801 0.22 24.2501C0.36 23.7201 0.57 23.1701 0.85 22.5801C1.01 22.6601 1.17 22.7301 1.31 22.8001C1.45 22.8701 1.6 22.9401 1.76 23.0201C1.28 24.0501 1.04 24.9301 1.04 25.6901C1.04 25.9601 1.07 26.2201 1.14 26.4601C1.21 26.7001 1.3 26.9201 1.41 27.1201C1.6 27.4101 1.85 27.6401 2.16 27.8001C2.48 27.9701 2.82 28.0501 3.2 28.0501H4.4V28.0601Z" fill="#4286F3"></path><path d="M10.5398 26.0901H9.50977V18.3101H10.5398V26.0901Z" fill="#4286F3"></path><path d="M18.5903 26.09H18.4503C17.8703 26.09 17.3603 25.96 16.9303 25.72C16.5003 25.48 16.1603 25.12 15.9303 24.68C15.8103 24.84 15.6703 24.98 15.5103 25.1C15.3503 25.22 15.1703 25.32 14.9603 25.41C14.8403 25.46 14.7103 25.5 14.5603 25.53C14.4103 25.56 14.2503 25.57 14.0703 25.57C13.8903 25.57 13.7203 25.55 13.5403 25.51C13.3603 25.47 13.1803 25.4 13.0103 25.31C12.7503 25.17 12.5403 24.99 12.3803 24.76C12.2203 24.53 12.1203 24.26 12.0703 23.96C12.0403 23.82 12.0303 23.68 12.0303 23.54C12.0303 23.31 12.0803 23.05 12.1703 22.76C12.2603 22.47 12.4503 22.18 12.7303 21.89C13.2303 21.38 13.9303 20.99 14.8403 20.72L14.7403 20.13L15.7403 19.92C15.8303 20.28 15.9003 20.61 15.9703 20.89C16.0403 21.17 16.0903 21.43 16.1403 21.65C16.1503 21.69 16.1703 21.77 16.1903 21.87C16.2103 21.97 16.2403 22.09 16.2703 22.22C16.3003 22.35 16.3403 22.5 16.3703 22.65C16.4103 22.8 16.4403 22.95 16.4803 23.1C16.5203 23.25 16.5503 23.38 16.5803 23.51C16.6103 23.64 16.6403 23.74 16.6703 23.83C16.7403 24.1 16.8503 24.32 16.9903 24.49C17.1303 24.66 17.2903 24.78 17.4503 24.87C17.6203 24.96 17.7903 25.02 17.9603 25.04C18.1303 25.07 18.2903 25.08 18.4203 25.08H18.5603V26.09H18.5903ZM15.1303 21.7C14.7703 21.81 14.4503 21.93 14.1803 22.08C13.9103 22.23 13.6803 22.39 13.5003 22.56C13.3203 22.74 13.1903 22.93 13.1203 23.13C13.0703 23.26 13.0403 23.4 13.0403 23.55C13.0403 23.62 13.0503 23.7 13.0603 23.77C13.0903 23.92 13.1403 24.05 13.2203 24.15C13.3003 24.25 13.4003 24.34 13.5103 24.4C13.5903 24.45 13.6803 24.48 13.7703 24.5C13.8603 24.52 13.9603 24.53 14.0503 24.53H14.1003C14.1803 24.53 14.2503 24.52 14.3303 24.51C14.4103 24.5 14.4803 24.48 14.5503 24.45C15.0103 24.26 15.2803 23.92 15.3503 23.42C15.3603 23.3 15.3703 23.19 15.3703 23.09C15.3703 23.04 15.3603 22.96 15.3503 22.86C15.3403 22.76 15.3303 22.69 15.3203 22.64L15.1303 21.7Z" fill="#4286F3"></path><path d="M18.3604 26.09V25.06H20.7804C21.1904 25.06 21.5204 25.03 21.7604 24.97C22.0004 24.91 22.2004 24.84 22.3404 24.75C22.4804 24.66 22.5704 24.57 22.6204 24.46C22.6704 24.36 22.7004 24.26 22.7104 24.16H21.8804C21.7904 24.16 21.6804 24.16 21.5604 24.15C21.4404 24.14 21.3204 24.13 21.2004 24.11C21.0704 24.09 20.9504 24.06 20.8204 24.02C20.6904 23.98 20.5704 23.93 20.4504 23.86C20.3504 23.8 20.2504 23.73 20.1504 23.64C20.0504 23.55 19.9604 23.44 19.8704 23.32C19.7904 23.19 19.7204 23.04 19.6704 22.86C19.6204 22.68 19.5904 22.48 19.5904 22.24C19.5904 21.95 19.6404 21.67 19.7404 21.4C19.8404 21.14 19.9904 20.91 20.1804 20.72C20.3704 20.53 20.5904 20.39 20.8304 20.29C21.0704 20.19 21.3304 20.14 21.6104 20.14C21.9304 20.14 22.2204 20.21 22.4804 20.34C22.7504 20.47 22.9704 20.67 23.1504 20.92C23.3504 21.18 23.4904 21.5 23.5904 21.89C23.6804 22.28 23.7304 22.72 23.7304 23.22V23.97C23.7304 24.33 23.6604 24.65 23.5104 24.93C23.3704 25.21 23.1504 25.44 22.8604 25.61C22.3804 25.92 21.6804 26.07 20.7704 26.07H18.3604V26.09ZM21.6204 21.19C21.5004 21.19 21.3804 21.21 21.2504 21.25C21.1204 21.29 21.0104 21.36 20.9104 21.44C20.8104 21.53 20.7304 21.64 20.6604 21.77C20.6004 21.9 20.5604 22.06 20.5604 22.25C20.5604 22.37 20.5704 22.47 20.6004 22.55C20.6304 22.63 20.6604 22.7 20.7004 22.75C20.7404 22.8 20.7804 22.85 20.8304 22.88C20.8704 22.91 20.9204 22.94 20.9604 22.96C21.0704 23.02 21.1904 23.07 21.3504 23.09C21.5104 23.11 21.6804 23.13 21.8904 23.13H22.7304C22.7204 22.77 22.6904 22.46 22.6204 22.19C22.5504 21.92 22.4604 21.71 22.3404 21.54C22.1704 21.3 21.9304 21.19 21.6204 21.19ZM20.7904 17.98L21.7204 17.04L22.6704 17.99L21.7304 18.93L20.7904 17.98Z" fill="#4286F3"></path><path d="M28.2596 26.09H28.0296C27.6796 26.09 27.3596 26.02 27.0596 25.88C27.0596 26.39 26.9896 26.84 26.8496 27.24C26.7096 27.64 26.4996 27.98 26.2296 28.26C25.9596 28.54 25.6196 28.75 25.2196 28.9C24.8196 29.04 24.3596 29.12 23.8496 29.12H23.0996V28.09H23.8496C24.2196 28.09 24.5496 28.05 24.8196 27.96C25.0896 27.87 25.3196 27.73 25.4996 27.55C25.6796 27.37 25.8096 27.13 25.8996 26.84C25.9896 26.55 26.0296 26.21 26.0296 25.81V22.41H27.0596V24.22C27.0596 24.42 27.0996 24.58 27.1896 24.7C27.2796 24.81 27.3696 24.9 27.4896 24.95C27.5996 25 27.7096 25.04 27.8096 25.05C27.9096 25.06 27.9896 25.07 28.0296 25.07H28.2596V26.09V26.09Z" fill="#4286F3"></path><path d="M35.3998 23.9101C35.3798 23.9201 35.2798 23.9901 35.1198 24.1001C34.9498 24.2101 34.7298 24.3501 34.4498 24.5101C34.1698 24.6701 33.8498 24.8501 33.4798 25.0301C33.1098 25.2201 32.7098 25.3901 32.2798 25.5401C31.8498 25.7001 31.4098 25.8301 30.9398 25.9301C30.4698 26.0301 30.0098 26.0901 29.5398 26.0901H28.0498V25.0601H29.5398C29.9498 25.0601 30.3598 25.0101 30.7798 24.9201C31.1998 24.8201 31.5998 24.7001 31.9798 24.5601C32.3698 24.4201 32.7298 24.2601 33.0698 24.0901C33.4098 23.9201 33.6998 23.7601 33.9598 23.6101C33.6098 23.4701 33.2598 23.3301 32.8998 23.1901C32.5398 23.0501 32.2298 22.9401 31.9398 22.8301C31.6498 22.7301 31.3998 22.6401 31.1898 22.5801C30.9798 22.5101 30.8398 22.4801 30.7698 22.4601C30.7098 22.4601 30.6398 22.4701 30.5798 22.4801C30.5198 22.4901 30.4498 22.5201 30.3798 22.5801C30.3098 22.6301 30.2498 22.7201 30.1898 22.8301C30.1298 22.9501 30.0698 23.1101 30.0198 23.3101L29.0198 23.0501C29.2998 21.9701 29.8898 21.4401 30.7898 21.4401C30.8098 21.4401 30.8398 21.4401 30.8798 21.4401C30.9198 21.4401 30.9698 21.4501 31.0398 21.4701C31.1098 21.4901 31.1998 21.5101 31.3198 21.5501C31.4398 21.5901 31.5798 21.6301 31.7598 21.6901C31.9398 21.7501 32.1598 21.8301 32.4198 21.9301C32.6798 22.0301 32.9898 22.1501 33.3498 22.2901L35.2798 23.0001L35.3998 23.9101Z" fill="#4286F3"></path><path d="M47.8298 26.0901C47.9798 26.3901 48.0698 26.6701 48.0798 26.9401L48.0898 27.0201C48.0898 27.2601 48.0398 27.4801 47.9498 27.6901C47.8598 27.9001 47.7098 28.1001 47.5098 28.2701C47.3098 28.4501 47.0698 28.6001 46.7998 28.7201C46.5298 28.8401 46.2198 28.9401 45.8898 29.0001C45.5598 29.0701 45.1998 29.1001 44.8298 29.1001H43.2798C42.7098 29.1001 42.1898 28.9701 41.7298 28.7201C41.2698 28.4701 40.8998 28.1201 40.6098 27.6801C40.4098 27.3701 40.2698 27.0201 40.1898 26.6401C40.1198 26.3501 40.0898 26.0401 40.0898 25.7101C40.0898 25.6201 40.0998 25.4401 40.1098 25.1701C40.1198 24.9101 40.1998 24.5401 40.3398 24.0601C40.4798 23.5801 40.6698 23.0901 40.9198 22.5801L41.8198 23.0401C41.4098 23.9001 41.1798 24.6701 41.1298 25.3701C41.1198 25.4901 41.1198 25.6001 41.1198 25.7101C41.1198 26.2601 41.2398 26.7401 41.4898 27.1301C41.6798 27.4301 41.9198 27.6601 42.2298 27.8201C42.5398 27.9801 42.8898 28.0601 43.2698 28.0601H44.8198C45.0198 28.0601 45.2198 28.0401 45.4198 28.0101C45.6198 27.9801 45.7998 27.9401 45.9698 27.8801C46.1398 27.8301 46.2998 27.7601 46.4298 27.6901C46.5698 27.6201 46.6798 27.5301 46.7798 27.4401C46.8798 27.3501 46.9398 27.2501 46.9698 27.1501C46.9898 27.1001 46.9998 27.0401 46.9998 26.9901C46.9998 26.9401 46.9898 26.8901 46.9698 26.8401C46.9298 26.7001 46.8198 26.5801 46.6598 26.4801C46.4998 26.3801 46.3098 26.3101 46.0798 26.2501C45.8498 26.1901 45.6098 26.1501 45.3498 26.1301C45.0898 26.1101 44.8398 26.0901 44.5898 26.0901L44.6298 25.0601H49.3298V26.0901H47.8298V26.0901Z" fill="#4286F3"></path><path d="M50.8802 21.6501C50.8902 21.6701 50.9002 21.7301 50.9202 21.8201C50.9402 21.9101 50.9702 22.0301 50.9902 22.1701C51.0202 22.3101 51.0502 22.4601 51.0802 22.6301C51.1102 22.8001 51.1402 22.9701 51.1702 23.1401C51.2002 23.3101 51.2202 23.4801 51.2402 23.6401C51.2602 23.8001 51.2702 23.9401 51.2702 24.0601C51.2702 24.4101 51.2102 24.7101 51.1002 24.9601C50.9902 25.2101 50.8402 25.4201 50.6502 25.5901C50.4702 25.7601 50.2602 25.8801 50.0302 25.9601C49.8002 26.0401 49.5702 26.0801 49.3402 26.0801H47.9502V25.0501H49.3402C49.3902 25.0501 49.4702 25.0401 49.5702 25.0301C49.6702 25.0201 49.7702 24.9701 49.8702 24.9101C49.9702 24.8401 50.0602 24.7501 50.1302 24.6201C50.2102 24.4901 50.2402 24.3101 50.2402 24.0701C50.2402 23.9901 50.2302 23.8901 50.2202 23.7701C50.2102 23.6501 50.1902 23.5201 50.1702 23.3801C50.1502 23.2401 50.1302 23.1001 50.1002 22.9501C50.0702 22.8001 50.0502 22.6601 50.0202 22.5301C49.9902 22.4001 49.9702 22.2801 49.9502 22.1801C49.9302 22.0801 49.9102 22.0001 49.9002 21.9501L50.8802 21.6501ZM49.0802 19.4001L50.0102 18.4601L50.9602 19.4101L50.0202 20.3501L49.0802 19.4001Z" fill="#4286F3"></path><path d="M55.1503 26.0901C54.7703 26.0901 54.4503 26.0601 54.2003 26.0101C53.9503 25.9601 53.7403 25.8901 53.5703 25.8001C53.4003 25.7101 53.2603 25.5901 53.1603 25.4501C53.0603 25.3101 52.9803 25.1501 52.9203 24.9601C52.8603 24.7701 52.8203 24.5601 52.8103 24.3301C52.8003 24.1001 52.7803 23.8401 52.7803 23.5601V18.3101H53.8103V23.5601C53.8103 23.8801 53.8203 24.1301 53.8403 24.3301C53.8603 24.5301 53.9103 24.6801 54.0003 24.7901C54.0903 24.9001 54.2103 24.9701 54.3903 25.0101C54.5703 25.0501 54.8203 25.0701 55.1603 25.0701V26.0901H55.1503Z" fill="#4286F3"></path><path d="M59.5699 25.06V26.09H59.1399C58.8099 26.09 58.5199 26.04 58.2599 25.95C57.9999 25.86 57.7999 25.71 57.6499 25.52C57.2699 25.9 56.7099 26.09 55.9699 26.09H54.9199V25.06H55.9699C56.2299 25.06 56.4399 25.03 56.5899 24.98C56.7399 24.93 56.8599 24.86 56.9399 24.78C57.0199 24.7 57.0699 24.61 57.0899 24.52C57.1099 24.42 57.1299 24.33 57.1299 24.24V22.4H58.1599V24.21C58.1599 24.34 58.1799 24.46 58.2199 24.55C58.2599 24.64 58.3099 24.72 58.3799 24.79C58.4399 24.85 58.5099 24.9 58.5899 24.94C58.6699 24.98 58.7399 25 58.8199 25.02C58.8899 25.04 58.9599 25.05 59.0199 25.05C59.0799 25.05 59.1199 25.05 59.1499 25.05H59.5699V25.06ZM56.1599 28.13L57.0899 27.19L58.0399 28.14L57.0999 29.08L56.1599 28.13Z" fill="#4286F3"></path><path d="M65.3101 25.06V26.09H64.3501C64.0201 26.09 63.7301 26.04 63.4701 25.95C63.2201 25.86 63.0101 25.71 62.8601 25.52C62.4801 25.9 61.9201 26.09 61.1801 26.09H59.3301V25.06H61.1801C61.4401 25.06 61.6501 25.03 61.8001 24.98C61.9501 24.93 62.0701 24.86 62.1501 24.78C62.2301 24.7 62.2801 24.61 62.3001 24.52C62.3201 24.42 62.3401 24.33 62.3401 24.24V22.4H63.3701V24.21C63.3701 24.34 63.3901 24.46 63.4301 24.55C63.4701 24.64 63.5201 24.72 63.5901 24.79C63.6601 24.86 63.7201 24.9 63.8001 24.94C63.8801 24.98 63.9501 25 64.0301 25.02C64.1001 25.04 64.1701 25.05 64.2301 25.05C64.2901 25.05 64.3301 25.05 64.3601 25.05H65.3101V25.06ZM61.7101 28.21L60.8301 29.09L59.9801 28.21L60.8401 27.34L61.7101 28.21ZM63.8001 28.2L62.9201 29.08L62.0701 28.2L62.9301 27.33L63.8001 28.2Z" fill="#4286F3"></path><path d="M71.02 25.0601V26.0901H70.06C69.73 26.0901 69.44 26.0401 69.18 25.9501C68.93 25.8601 68.72 25.7101 68.57 25.5201C68.19 25.9001 67.63 26.0901 66.89 26.0901H65.04V25.0601H66.89C67.15 25.0601 67.36 25.0301 67.51 24.9801C67.66 24.9301 67.78 24.8601 67.86 24.7801C67.94 24.7001 67.99 24.6101 68.01 24.5201C68.03 24.4201 68.05 24.3301 68.05 24.2401V22.4001H69.08V24.2101C69.08 24.3401 69.1 24.4601 69.14 24.5501C69.18 24.6401 69.23 24.7201 69.3 24.7901C69.37 24.8601 69.43 24.9001 69.51 24.9401C69.59 24.9801 69.66 25.0001 69.74 25.0201C69.81 25.0401 69.88 25.0501 69.94 25.0501C70 25.0501 70.04 25.0501 70.07 25.0501H71.02V25.0601ZM67.17 21.0601L66.31 20.1901L67.16 19.3101L68.04 20.1901L67.17 21.0601ZM69.26 21.0701L68.4 20.2001L69.25 19.3201L70.13 20.2001L69.26 21.0701Z" fill="#4286F3"></path><path d="M80.3703 26.09C80.0203 26.09 79.7103 26.04 79.4403 25.94C79.1703 25.84 78.9503 25.69 78.7603 25.49V25.49L78.6803 25.58C78.5003 25.75 78.3003 25.88 78.0703 25.96C77.8503 26.04 77.6003 26.09 77.3503 26.09C76.6703 26.09 76.1403 25.89 75.7703 25.5C75.5903 25.69 75.3803 25.84 75.1403 25.93C74.9003 26.02 74.6603 26.08 74.4203 26.09H74.3503C73.7103 26.08 73.2003 25.89 72.8403 25.52C72.8203 25.55 72.7903 25.57 72.7603 25.6C72.3903 25.93 71.8703 26.09 71.2103 26.09H70.7803V25.06H71.2103C71.4403 25.06 71.6303 25.04 71.7703 24.99C71.9103 24.95 72.0303 24.88 72.1103 24.8C72.1903 24.72 72.2403 24.61 72.2703 24.49C72.3003 24.37 72.3103 24.23 72.3103 24.07V22.41H73.3403V24.05C73.3403 24.4 73.4203 24.66 73.6003 24.82C73.7803 24.98 74.0403 25.06 74.4003 25.07C74.4703 25.07 74.5503 25.05 74.6403 25.03C74.7403 25.01 74.8303 24.96 74.9203 24.89C75.0103 24.82 75.0903 24.72 75.1503 24.59C75.2103 24.46 75.2503 24.29 75.2503 24.07V22.41H76.2803V24.05C76.2803 24.4 76.3603 24.66 76.5303 24.82C76.7003 24.98 76.9703 25.06 77.3503 25.06C77.4603 25.06 77.5603 25.04 77.6703 25.01C77.7803 24.98 77.8703 24.92 77.9503 24.85C78.0303 24.77 78.1003 24.67 78.1603 24.55C78.2203 24.43 78.2503 24.28 78.2503 24.1V22.41H79.2803V24.1C79.2903 24.43 79.3803 24.68 79.5603 24.83C79.7403 24.98 80.0103 25.06 80.3703 25.06H80.7003V26.09H80.3703V26.09ZM74.6903 21.1L73.8303 20.23L74.6803 19.35L75.5603 20.23L74.6903 21.1ZM76.5103 18.65L75.7403 19.41L74.9803 18.65L75.7703 17.87L76.5103 18.65ZM76.7803 21.11L75.9203 20.24L76.7703 19.36L77.6503 20.24L76.7803 21.11Z" fill="#4286F3"></path><path d="M84.2805 21.65C84.2905 21.67 84.3005 21.73 84.3205 21.82C84.3405 21.91 84.3705 22.03 84.3905 22.17C84.4205 22.31 84.4505 22.46 84.4805 22.63C84.5105 22.8 84.5405 22.97 84.5705 23.14C84.6005 23.31 84.6205 23.48 84.6405 23.64C84.6605 23.8 84.6705 23.94 84.6705 24.06C84.6705 24.41 84.6105 24.71 84.5005 24.96C84.3905 25.21 84.2405 25.42 84.0505 25.59C83.8705 25.76 83.6605 25.88 83.4305 25.96C83.2005 26.04 82.9705 26.08 82.7405 26.08H80.4805V25.05H82.7405C82.7905 25.05 82.8705 25.04 82.9705 25.03C83.0705 25.01 83.1705 24.97 83.2705 24.91C83.3705 24.85 83.4605 24.75 83.5305 24.62C83.6005 24.49 83.6405 24.31 83.6405 24.07C83.6405 23.99 83.6305 23.89 83.6205 23.77C83.6105 23.65 83.5905 23.52 83.5705 23.38C83.5505 23.24 83.5305 23.1 83.5005 22.95C83.4705 22.8 83.4505 22.66 83.4205 22.53C83.3905 22.4 83.3705 22.28 83.3505 22.18C83.3305 22.08 83.3105 22 83.3005 21.95L84.2805 21.65ZM82.8905 28.03L82.0105 28.91L81.1605 28.03L82.0205 27.16L82.8905 28.03ZM83.0905 30.4L82.3005 29.62L83.0605 28.86L83.8305 29.62L83.0905 30.4ZM84.9805 28.02L84.1005 28.9L83.2505 28.02L84.1105 27.15L84.9805 28.02Z" fill="#4286F3"></path></svg>